<svg width="70" height="70" viewBox="0 0 70 70" fill="none" xmlns="http://www.w3.org/2000/svg">
<mask id="path-1-inside-1_315_150" fill="white">
<path d="M35.0208 0.652954C16.1653 0.652954 0.852006 15.791 0.613541 34.5554H24.3224C24.4347 29.0912 29.1518 24.6943 34.9544 24.6943C40.7569 24.6943 45.474 29.0912 45.5863 34.5554H69.4281C69.1896 15.791 53.8763 0.652954 35.0208 0.652954Z"/>
<path d="M39.321 34.571C39.321 36.8027 37.4087 38.6119 35.0498 38.6119C32.6909 38.6119 30.7786 36.8027 30.7786 34.571C30.7786 32.3393 32.6909 30.5301 35.0498 30.5301C37.4087 30.5301 39.321 32.3393 39.321 34.571Z"/>
<path fill-rule="evenodd" clip-rule="evenodd" d="M34.9544 44.8155C40.8273 44.8155 45.5883 40.3112 45.5883 34.7549C45.5883 34.6882 45.5877 34.6218 45.5863 34.5554C45.474 29.0912 40.7569 24.6943 34.9544 24.6943C29.1518 24.6943 24.4347 29.0912 24.3224 34.5554C24.3211 34.6218 24.3204 34.6882 24.3204 34.7549C24.3204 40.3112 29.0814 44.8155 34.9544 44.8155ZM35.0498 38.6119C37.4087 38.6119 39.321 36.8027 39.321 34.571C39.321 32.3393 37.4087 30.5301 35.0498 30.5301C32.6909 30.5301 30.7786 32.3393 30.7786 34.571C30.7786 36.8027 32.6909 38.6119 35.0498 38.6119Z"/>
<path d="M35.0208 69.347C54.025 69.347 69.4309 53.9693 69.4309 35C69.4309 34.8516 69.4299 34.7034 69.4281 34.5554H45.5863C45.5877 34.6218 45.5883 34.6882 45.5883 34.7549C45.5883 40.3112 40.8273 44.8155 34.9544 44.8155C29.0814 44.8155 24.3204 40.3112 24.3204 34.7549C24.3204 34.6882 24.3211 34.6218 24.3224 34.5554H0.613541C0.611661 34.7034 0.610718 34.8516 0.610718 35C0.610718 53.9693 16.0166 69.347 35.0208 69.347Z"/>
</mask>
<path d="M35.0208 0.652954C16.1653 0.652954 0.852006 15.791 0.613541 34.5554H24.3224C24.4347 29.0912 29.1518 24.6943 34.9544 24.6943C40.7569 24.6943 45.474 29.0912 45.5863 34.5554H69.4281C69.1896 15.791 53.8763 0.652954 35.0208 0.652954Z" fill="#F15B6C"/>
<path d="M39.321 34.571C39.321 36.8027 37.4087 38.6119 35.0498 38.6119C32.6909 38.6119 30.7786 36.8027 30.7786 34.571C30.7786 32.3393 32.6909 30.5301 35.0498 30.5301C37.4087 30.5301 39.321 32.3393 39.321 34.571Z" fill="#444445"/>
<path fill-rule="evenodd" clip-rule="evenodd" d="M34.9544 44.8155C40.8273 44.8155 45.5883 40.3112 45.5883 34.7549C45.5883 34.6882 45.5877 34.6218 45.5863 34.5554C45.474 29.0912 40.7569 24.6943 34.9544 24.6943C29.1518 24.6943 24.4347 29.0912 24.3224 34.5554C24.3211 34.6218 24.3204 34.6882 24.3204 34.7549C24.3204 40.3112 29.0814 44.8155 34.9544 44.8155ZM35.0498 38.6119C37.4087 38.6119 39.321 36.8027 39.321 34.571C39.321 32.3393 37.4087 30.5301 35.0498 30.5301C32.6909 30.5301 30.7786 32.3393 30.7786 34.571C30.7786 36.8027 32.6909 38.6119 35.0498 38.6119Z" fill="#E5E5E5"/>
<path d="M35.0208 69.347C54.025 69.347 69.4309 53.9693 69.4309 35C69.4309 34.8516 69.4299 34.7034 69.4281 34.5554H45.5863C45.5877 34.6218 45.5883 34.6882 45.5883 34.7549C45.5883 40.3112 40.8273 44.8155 34.9544 44.8155C29.0814 44.8155 24.3204 40.3112 24.3204 34.7549C24.3204 34.6882 24.3211 34.6218 24.3224 34.5554H0.613541C0.611661 34.7034 0.610718 34.8516 0.610718 35C0.610718 53.9693 16.0166 69.347 35.0208 69.347Z" fill="#E3E2E3"/>
<path d="M44.5883 34.7549C44.5883 39.7074 40.328 43.8155 34.9544 43.8155V45.8155C41.3267 45.8155 46.5883 40.915 46.5883 34.7549H44.5883ZM34.9544 43.8155C29.5807 43.8155 25.3204 39.7074 25.3204 34.7549H23.3204C23.3204 40.915 28.582 45.8155 34.9544 45.8155V43.8155ZM38.321 34.571C38.321 36.1989 36.9094 37.6119 35.0498 37.6119V39.6119C37.9081 39.6119 40.321 37.4065 40.321 34.571H38.321ZM35.0498 37.6119C33.1902 37.6119 31.7786 36.1989 31.7786 34.571H29.7786C29.7786 37.4065 32.1916 39.6119 35.0498 39.6119V37.6119ZM31.7786 34.571C31.7786 32.943 33.1902 31.5301 35.0498 31.5301V29.5301C32.1916 29.5301 29.7786 31.7355 29.7786 34.571H31.7786ZM35.0498 31.5301C36.9094 31.5301 38.321 32.943 38.321 34.571H40.321C40.321 31.7355 37.9081 29.5301 35.0498 29.5301V31.5301ZM0.613541 35.5554H24.3224V33.5554H0.613541V35.5554ZM25.3222 34.576C25.4223 29.7048 29.6459 25.6943 34.9544 25.6943V23.6943C28.6578 23.6943 23.4471 28.4776 23.3226 34.5349L25.3222 34.576ZM34.9544 25.6943C40.2629 25.6943 44.4864 29.7048 44.5865 34.576L46.5861 34.5349C46.4616 28.4776 41.251 23.6943 34.9544 23.6943V25.6943ZM45.5863 35.5554H69.4281V33.5554H45.5863V35.5554ZM44.5865 34.576C44.5877 34.6355 44.5883 34.6951 44.5883 34.7549H46.5883C46.5883 34.6814 46.5876 34.608 46.5861 34.5349L44.5865 34.576ZM0.320801 35.5554H0.613541V33.5554H0.320801V35.5554ZM69.4281 35.5554H69.6793V33.5554H69.4281V35.5554ZM25.3204 34.7549C25.3204 34.6951 25.321 34.6355 25.3222 34.576L23.3226 34.5349C23.3211 34.608 23.3204 34.6814 23.3204 34.7549H25.3204ZM0.613541 34.5554L2.61338 34.5808L0.613541 34.5554ZM69.4281 34.5554L67.4282 34.5808L67.4282 34.5808L69.4281 34.5554ZM67.4309 35C67.4309 52.8613 52.9238 67.347 35.0208 67.347V71.347C55.1261 71.347 71.4309 55.0774 71.4309 35H67.4309ZM35.0208 67.347C17.1177 67.347 2.61072 52.8613 2.61072 35H-1.38928C-1.38928 55.0774 14.9155 71.347 35.0208 71.347V67.347ZM35.0208 -1.34705C15.0727 -1.34705 -1.1339 14.669 -1.3863 34.53L2.61338 34.5808C2.83791 16.9129 17.258 2.65295 35.0208 2.65295V-1.34705ZM71.4279 34.53C71.1755 14.669 54.9689 -1.34705 35.0208 -1.34705V2.65295C52.7836 2.65295 67.2037 16.9129 67.4282 34.5808L71.4279 34.53ZM67.4282 34.5808C67.43 34.7203 67.4309 34.86 67.4309 35H71.4309C71.4309 34.8431 71.4299 34.6864 71.4279 34.53L67.4282 34.5808ZM2.61072 35C2.61072 34.8601 2.61161 34.7203 2.61338 34.5808L-1.3863 34.53C-1.38829 34.6864 -1.38928 34.8431 -1.38928 35H2.61072Z" fill="black" mask="url(#path-1-inside-1_315_150)"/>
<path d="M42.5826 7.42212C42.5826 7.42212 52.1549 9.03888 57.3061 17.4222" stroke="#EDDFDF" stroke-width="5" stroke-linecap="round"/>
<circle cx="60.6429" cy="22.5061" r="1.74231" fill="#EDDFDF"/>
</svg>
