<svg width="90" height="108" viewBox="0 0 90 108" fill="none" xmlns="http://www.w3.org/2000/svg">
<path d="M62.1853 1.00553C62.1557 1.00235 62.127 1.00237 62.099 1.00647C62.066 1.01114 62.0338 1.0219 62.0019 1.03531C61.915 1.05214 61.8356 1.09119 61.7641 1.15584C61.4929 1.40129 61.3474 1.84218 61.2101 2.98801C61.2088 2.99889 61.2077 3.00829 61.2064 3.01968C61.1671 3.35137 61.1283 3.73176 61.0875 4.19361C61.0507 4.61027 61.0328 6.0727 61.03 7.87496C61.0204 8.90668 61.0245 10.0182 61.0412 11.1822C61.0577 13.4846 61.0917 15.7315 61.1414 16.8391C61.1826 17.7594 61.2307 18.6729 61.2832 19.5715C61.2994 19.8986 61.3165 20.2006 61.3345 20.4694C61.343 20.5966 61.3536 20.7301 61.3626 20.8589C61.6854 25.831 62.1504 30.0757 62.5455 31.3785C62.5473 31.3851 62.5482 31.39 62.5495 31.3962C62.5536 31.4259 62.5585 31.457 62.5609 31.4778C62.5503 31.5516 62.4465 31.5432 62.1477 31.4773C60.0136 31.0063 55.2493 31.0115 51.1011 31.4893C48.0638 31.8392 43.5261 32.96 41.9831 33.7415L41.846 33.811C41.7072 33.8646 41.5867 33.9076 41.4993 33.931C41.392 33.9524 41.3124 33.954 41.2466 33.9395L40.9389 33.7361C40.1922 33.2419 38.7051 32.4339 37.1351 31.6434C36.9592 31.5522 36.7861 31.4629 36.6319 31.3856C36.0932 31.1156 35.5319 30.8487 34.9529 30.5858C34.4285 30.3421 33.922 30.1129 33.4781 29.9254C26.7429 27.0805 18.5443 25.0181 11.7297 24.4545C10.9644 24.3912 10.0239 24.3607 9.09914 24.3552C8.85971 24.3481 8.63709 24.3439 8.4454 24.3441C8.09695 24.3444 7.76749 24.3554 7.45109 24.3713C7.23862 24.3775 7.03706 24.3858 6.8503 24.3975C6.06863 24.4373 5.48105 24.502 5.31049 24.588C5.19517 24.6461 5.1009 24.7025 5.02451 24.7598C4.84425 24.8651 4.75461 24.9914 4.75461 25.1394C4.75461 25.2017 4.77729 25.2812 4.81818 25.3738C4.84302 25.4543 4.88083 25.5425 4.93116 25.6407C5.04832 25.8693 5.44556 26.33 5.95478 26.8588C6.35827 27.2896 6.83287 27.7517 7.33835 28.1996C7.7972 28.6176 8.24567 29.0021 8.60305 29.2667C9.75151 30.1173 12.1079 31.7233 12.2073 31.7233C12.2476 31.7233 12.4451 31.8405 12.6462 31.9838C13.0831 32.2948 14.0385 32.8483 15.2413 33.5054C15.5486 33.6914 16.2525 34.0643 17.1231 34.512C19.7117 35.8706 22.7457 37.3721 24.5397 38.1427C25.1116 38.3884 25.7179 38.6416 26.3314 38.895C26.6802 39.0448 27.1346 39.2306 27.6805 39.4457C30.2173 40.4683 32.6912 41.3982 33.7168 41.696C34.1003 41.8073 34.2765 41.8782 34.3342 41.9624C34.3268 42.0324 34.3087 42.1404 34.2805 42.2802C33.7856 43.7186 33.199 47.5249 33.194 49.421C33.1937 49.5263 33.1904 49.6257 33.1853 49.7183C33.1799 49.7712 33.1758 49.8048 33.1709 49.8504C33.137 50.0535 33.098 50.1738 33.0525 50.2175C32.9789 50.1976 32.8422 50.1475 32.6656 50.0773C32.4418 49.9821 32.1517 49.8532 31.8442 49.7105C31.2194 49.4205 30.5727 49.1406 30.4073 49.0887C30.2418 49.0368 29.8341 48.871 29.5013 48.7202C28.7301 48.3708 27.378 47.8638 25.387 47.1774C19.9059 45.2874 13.5834 43.8151 8.14312 43.1618C7.51264 43.0861 6.52692 43.0054 5.49863 42.9352C4.70105 42.8711 3.91455 42.8222 3.14343 42.7912C2.77956 42.7766 2.49316 42.7681 2.24129 42.7636C1.67126 42.7465 1.26951 42.7467 1.19829 42.774C1.11289 42.8067 1.05799 42.8729 1.03285 42.9824C1.01126 43.033 1.00354 43.0931 1.00354 43.1651C1.00354 43.1665 1.00378 43.1692 1.00378 43.1706C1.00376 43.1724 1.00354 43.1742 1.00354 43.176C1.00354 43.2275 1.02092 43.3182 1.04585 43.4263C1.10216 43.758 1.2415 44.2364 1.47245 44.919C2.42446 47.7331 3.93005 51.3884 5.50761 54.8322V54.8324C5.56632 54.9776 5.72657 55.3219 5.93398 55.7565C7.25877 58.5925 8.60412 61.2143 9.69024 63.0043C10.0802 63.6471 10.2833 64.0242 10.5023 64.2409C10.5504 64.306 10.5874 64.3501 10.6066 64.3619C10.6121 64.3651 10.6359 64.3688 10.6678 64.3723C10.9971 64.5714 11.4502 64.511 12.56 64.4607C12.7354 64.4527 13.0016 64.4481 13.3253 64.446C13.9619 64.4551 14.6492 64.4628 15.3971 64.4673C16.065 64.4714 16.7079 64.4789 17.3389 64.4879C19.852 64.5361 22.5405 64.6166 23.4508 64.6904C23.7171 64.712 24.4658 64.7686 25.1147 64.8162C25.2683 64.8274 25.4134 64.8402 25.5482 64.8537C25.9374 64.9041 26.1882 64.9573 26.2653 65.0121C26.2634 65.0578 26.2504 65.1396 26.2293 65.2444C26.196 65.3648 26.1537 65.5107 26.1057 65.6665C25.079 69.0007 22.7853 77.0195 22.7853 77.2747C22.7853 77.298 22.7894 77.3206 22.7952 77.343C22.792 77.36 22.7853 77.3888 22.7853 77.395C22.7853 77.426 22.8323 77.4693 22.9254 77.525C23.1637 77.7253 23.7581 77.9667 25.0845 78.438C27.2883 79.2212 30.07 80.2587 30.7344 80.5413C30.7565 80.5535 30.7813 80.566 30.802 80.5782C30.9497 80.6652 31.0555 80.7664 31.1607 80.9547C31.1981 81.0285 31.2315 81.107 31.2555 81.1851C31.3324 81.4352 31.5064 81.926 31.6424 82.2758C31.6578 82.3154 31.67 82.3489 31.6833 82.3846C31.7666 82.6618 31.8093 82.8486 31.8175 82.992C31.8098 83.0792 31.7859 83.1626 31.745 83.2614C31.617 83.5705 31.521 83.6209 30.914 83.6965C30.5353 83.7437 30.1335 83.8488 29.7426 83.9912C29.4916 84.0729 29.2499 84.1777 29.0164 84.3065C28.365 84.6376 27.8201 85.0545 27.5836 85.4533C27.4114 85.6014 27.2678 85.7056 27.1934 85.7303C27.0955 85.6239 26.9401 85.4214 26.7786 85.1829C26.5861 84.8986 26.1219 84.3522 25.6614 83.8577C25.6002 83.7914 25.5391 83.7266 25.478 83.6634C25.4433 83.6273 25.4074 83.5872 25.3733 83.5524C24.529 82.688 24.3441 82.5527 23.9878 82.5483C23.986 82.5483 23.9832 82.5474 23.9814 82.5474C23.9796 82.5474 23.9773 82.5476 23.9755 82.5476C23.9737 82.5476 23.9724 82.5474 23.9703 82.5474C23.9653 82.5474 23.9607 82.5479 23.9557 82.5479C23.9539 82.5478 23.952 82.5474 23.9503 82.5474C23.9419 82.5474 23.9336 82.5488 23.9252 82.5493C23.4352 82.5661 23.1616 82.8571 23.0625 83.4675C23.0269 83.6866 22.9284 83.9314 22.829 84.0614C22.7948 84.0876 22.7612 84.1244 22.7286 84.1701C22.5042 84.4195 22.3717 84.9278 22.3268 85.6249C22.3118 85.786 22.3013 85.9491 22.3013 86.1115C22.3013 86.3295 22.3117 86.5675 22.327 86.8149C22.4019 88.3722 22.7475 90.4129 23.3414 92.5309C23.5094 93.1299 23.7232 93.9003 23.8165 94.243C24.0884 95.2421 24.5765 96.5884 25.1313 97.9322C25.2873 98.3682 25.5901 99.0558 25.9507 99.805C26.3887 100.75 26.8249 101.603 27.197 102.212C28.3144 104.041 29.2198 105.039 30.1267 105.44C30.7414 105.712 31.129 105.666 31.5179 105.278L31.7733 105.022L32.5736 105.283C32.5924 105.289 32.6168 105.296 32.6365 105.302C32.9226 105.416 33.2249 105.5 33.6031 105.561C33.7868 105.604 33.9623 105.641 34.0997 105.664C35.0254 105.816 39.2244 105.814 41.1183 105.659C41.9169 105.594 43.2335 105.505 44.0438 105.461L45.5172 105.382L45.4493 105.887C45.4114 106.17 45.4422 106.391 45.5328 106.552C45.6349 106.75 45.8274 106.851 46.1038 106.855C46.3718 106.865 46.7134 106.787 47.122 106.611L47.7249 106.352L48.1196 106.782C48.1903 106.886 48.2662 106.963 48.3479 107.017C48.4785 107.144 48.5853 107.234 48.615 107.234C48.7643 107.234 49.2215 106.966 49.4923 106.719L49.6294 106.594C49.6848 106.558 49.7274 106.538 49.7634 106.531C49.7868 106.534 49.8103 106.541 49.834 106.552L50.1408 106.859C50.5859 107.304 50.7316 107.286 51.6461 106.67L52.2464 106.266L52.3268 106.354L52.6546 106.748C53.2523 107.467 53.6224 107.426 54.5156 106.543L55.0488 106.015C55.1402 105.945 55.217 105.898 55.2804 105.87L55.7898 106.015C56.0803 106.097 56.2967 106.153 56.4787 106.187L56.8999 106.311L57.192 106.161C57.321 106.117 57.4601 106.052 57.6347 105.964L58.2738 105.64L58.9533 106.303C58.9704 106.32 58.9863 106.334 59.0031 106.35C59.147 106.496 59.2862 106.617 59.4201 106.717C60.1529 107.295 60.5829 107.221 60.7989 106.5C60.8213 106.426 60.8403 106.371 60.8611 106.308C60.9108 106.168 60.9583 106.062 60.9863 106.032C61.0235 106.046 61.3846 106.25 61.8258 106.508C62.2814 106.774 62.7325 106.992 62.8282 106.992C63.0618 106.992 63.4446 106.634 63.4446 106.415C63.4446 106.414 63.4448 106.413 63.4448 106.413C63.497 106.352 63.5527 106.316 63.6022 106.312C63.6199 106.317 63.6355 106.32 63.6563 106.329C63.7728 106.378 64.1561 106.445 64.5081 106.478C65.1348 106.537 65.1511 106.53 65.2909 106.16C65.3405 106.028 65.3785 105.943 65.4351 105.887C65.4402 105.883 65.4459 105.88 65.4512 105.876C65.5194 105.838 65.6172 105.81 65.7563 105.789C65.7739 105.788 65.7891 105.785 65.8083 105.785C65.8088 105.785 65.809 105.785 65.8099 105.785C65.8562 105.783 65.907 105.782 65.9636 105.782C65.9649 105.782 65.966 105.782 65.9673 105.782C65.99 105.782 66.0085 105.781 66.033 105.781C66.0743 105.781 66.111 105.778 66.15 105.776C66.1684 105.775 66.1884 105.775 66.2061 105.773C66.7605 105.734 67.0747 105.506 67.0751 105.128C67.0752 104.971 67.0885 104.911 67.9099 104.885L68.9245 104.912C70.0038 104.941 71.3398 104.909 72.7505 104.832C74.5766 104.78 75.8872 104.651 78.2078 104.336L79.6079 104.147L79.8388 104.118L79.8629 104.139L80.1439 104.448C80.4379 104.77 80.7618 104.965 81.116 105.034C81.121 105.035 81.1262 105.035 81.1311 105.036C81.4655 105.098 81.8269 105.048 82.2167 104.885C82.6435 104.706 83.1834 104.208 83.7437 103.517C84.0869 103.105 84.4236 102.63 84.7501 102.097C85.1571 101.449 85.5451 100.734 85.877 100.004C87.5975 96.2163 88.7119 91.3463 88.8769 87.899C88.9263 87.2941 88.946 86.8348 88.9152 86.734C88.9087 86.7126 88.9001 86.6555 88.8904 86.5832C88.8455 85.2094 88.5946 84.1999 88.1034 83.7953C87.9711 83.6863 87.7804 83.4309 87.6446 83.1917C87.6364 83.0735 87.5567 82.9464 87.4426 82.8355C87.3361 82.6798 87.2321 82.619 87.0493 82.589C86.9986 82.5716 86.9477 82.5592 86.8978 82.5528C86.8901 82.5518 86.8827 82.5516 86.8751 82.5507C86.8631 82.5493 86.8508 82.5474 86.8394 82.5474C86.838 82.5474 86.8358 82.5479 86.8342 82.5483C86.8305 82.5483 86.8269 82.5474 86.8233 82.5474C86.7732 82.5474 86.7221 82.5551 86.6704 82.5684C86.4592 82.5891 86.3199 82.6918 86.0609 82.9664C85.9846 83.0472 85.9054 83.1191 85.8304 83.1787C85.7657 83.2257 85.7024 83.2696 85.6456 83.303C85.582 83.3363 85.5302 83.3511 85.5003 83.3396C85.3694 83.2894 85.1912 83.3841 84.9817 83.601C84.8415 83.7331 84.6889 83.9322 84.5175 84.2063C84.3056 84.5308 84.0779 84.9363 83.8432 85.4147C83.5211 86.0715 83.2799 86.5527 83.185 86.7331C83.1495 86.7924 83.1155 86.8488 83.0957 86.8737C83.0303 86.8422 82.6963 86.5366 82.3063 86.1488C80.936 84.7866 79.534 83.83 78.5687 83.5982C78.3511 83.5459 78.1764 83.342 77.9575 82.8849C77.7889 82.5328 77.2378 81.428 76.7327 80.4297C75.0202 77.0447 74.0324 73.9768 73.7911 71.2935C73.7522 70.8609 73.6921 70.2751 73.6574 69.9917C73.6438 69.8811 73.6361 69.7951 73.6387 69.7154C73.6562 69.6011 73.6871 69.5023 73.7302 69.4084C73.8437 69.2165 74.0799 68.9653 74.542 68.479C75.0633 67.9305 75.678 67.2366 75.9079 66.9371C76.1378 66.6376 76.3567 66.3654 76.3943 66.3321C76.6232 66.1293 77.1923 65.2211 77.7507 64.2302C78.0341 63.7538 78.2837 63.2871 78.4968 62.8374C78.7326 62.3703 78.9246 61.9554 79.0267 61.6732C79.3257 60.8466 79.553 59.3848 79.5282 58.448C79.4817 56.6887 79.2062 55.5348 78.0879 52.4159C77.0018 49.3868 76.6914 48.289 76.0173 45.0949C75.5135 42.7078 75.1486 41.5048 74.3655 39.6494L73.7789 38.2597C73.7611 38.0845 73.7486 37.8613 73.741 37.5724L73.7377 37.4008C73.7331 37.1588 73.7302 36.8923 73.7302 36.5632C73.7302 35.9651 73.7176 35.3063 73.6952 34.6247C73.6809 33.9868 73.6615 33.3987 73.6342 32.8325C73.4581 28.4044 72.9351 24.8765 71.7985 20.2101C70.1585 13.477 67.0099 6.41102 63.9359 2.56513C63.3232 1.79855 62.8423 1.32723 62.4642 1.13097C62.354 1.05537 62.2645 1.01459 62.1856 1.00547L62.1853 1.00553ZM34.8645 67.1381L35.8425 69.0938L34.0089 76.5504L30.0972 74.5946L34.8645 67.1381Z" fill="black"/>
<path d="M48.6842 107.222C48.6569 107.229 48.6334 107.233 48.6147 107.233C48.6148 107.233 48.6148 107.234 48.615 107.234C48.6336 107.234 48.6569 107.229 48.6842 107.222L48.6842 107.222Z" fill="#FFD73E"/>
<path d="M53.8085 107.127C53.7285 107.172 53.653 107.205 53.5806 107.225C53.653 107.205 53.7285 107.172 53.8085 107.127Z" fill="#FFD73E"/>
<path d="M50.9813 107.076C50.8803 107.124 50.7946 107.153 50.7173 107.162C50.7946 107.153 50.8803 107.124 50.9813 107.076Z" fill="#FFD73E"/>
<path d="M50.3665 107.059C50.4128 107.093 50.4576 107.118 50.5029 107.136C50.4576 107.118 50.4128 107.093 50.3665 107.059Z" fill="#FFD73E"/>
<path d="M52.8694 106.982C52.9385 107.048 53.0054 107.102 53.0718 107.144C53.0054 107.102 52.9385 107.048 52.8694 106.982Z" fill="#FFD73E"/>
<path d="M62.7762 106.982C62.7986 106.988 62.8162 106.992 62.8282 106.992C62.8428 106.992 62.8579 106.99 62.8736 106.987C62.8579 106.99 62.8425 106.991 62.8279 106.991C62.816 106.991 62.7986 106.988 62.7762 106.982V106.982Z" fill="#FFD73E"/>
<path d="M63.1257 106.867C63.058 106.916 62.9872 106.955 62.9215 106.976C62.9872 106.955 63.058 106.916 63.1257 106.867Z" fill="#FFD73E"/>
<path d="M46.3184 106.846C46.2423 106.854 46.1705 106.857 46.1035 106.855C46.069 106.854 46.0359 106.852 46.004 106.849C46.0359 106.852 46.0692 106.854 46.1038 106.855C46.1708 106.857 46.2423 106.854 46.3184 106.846Z" fill="#FFD73E"/>
<path d="M46.6909 106.768C46.6015 106.794 46.5164 106.814 46.4359 106.829C46.5164 106.814 46.6015 106.794 46.6909 106.768Z" fill="#FFD73E"/>
<path d="M46.9716 106.672C46.8737 106.71 46.7802 106.742 46.6909 106.768C46.7801 106.742 46.8738 106.71 46.9716 106.672Z" fill="#FFD73E"/>
<path d="M49.7036 106.552C49.6815 106.562 49.6568 106.576 49.6291 106.594L49.492 106.719C49.3567 106.842 49.1748 106.971 49.008 107.069C49.1748 106.971 49.3569 106.842 49.4923 106.719L49.6294 106.594C49.657 106.576 49.6815 106.562 49.7036 106.552V106.552Z" fill="#FFD73E"/>
<path d="M49.7631 106.531C49.7451 106.534 49.7257 106.541 49.7036 106.552C49.7257 106.541 49.7454 106.534 49.7634 106.531C49.7868 106.534 49.8103 106.541 49.834 106.552L49.8338 106.552C49.81 106.541 49.7866 106.534 49.7631 106.531L49.7631 106.531Z" fill="#FFD73E"/>
<path d="M65.0413 106.493C64.9976 106.503 64.9438 106.507 64.8749 106.505C64.9437 106.507 64.9977 106.503 65.0413 106.493Z" fill="#FFD73E"/>
<path d="M65.1167 106.462C65.0953 106.476 65.0706 106.486 65.0416 106.493C65.0707 106.486 65.0952 106.476 65.1167 106.462Z" fill="#FFD73E"/>
<path d="M65.1734 106.41C65.165 106.42 65.1561 106.43 65.1467 106.439C65.1562 106.43 65.165 106.42 65.1734 106.41Z" fill="#FFD73E"/>
<path d="M63.4843 106.372C63.4709 106.384 63.4576 106.397 63.4446 106.413C63.4446 106.414 63.4443 106.414 63.4443 106.415C63.4443 106.429 63.4429 106.443 63.4401 106.458C63.4429 106.443 63.4446 106.429 63.4446 106.415C63.4446 106.414 63.4448 106.414 63.4448 106.413C63.4578 106.397 63.4709 106.384 63.4843 106.372L63.4843 106.372Z" fill="#FFD73E"/>
<path d="M63.7889 106.368C63.9564 106.408 64.2248 106.45 64.4807 106.475C64.2247 106.45 63.9564 106.408 63.7889 106.368Z" fill="#FFD73E"/>
<path d="M47.7246 106.352L47.1217 106.611C47.0707 106.633 47.0208 106.653 46.9719 106.672C47.0208 106.653 47.0709 106.633 47.1219 106.611L47.7249 106.352L47.7246 106.352Z" fill="#FFD73E"/>
<path d="M52.2462 106.266L51.6459 106.67C51.5316 106.747 51.4294 106.815 51.337 106.873C51.4294 106.815 51.5318 106.747 51.6461 106.67L52.2464 106.266L52.2462 106.266Z" fill="#FFD73E"/>
<path d="M60.7556 106.628C60.7101 106.748 60.6568 106.845 60.5952 106.919C60.6567 106.845 60.7101 106.748 60.7556 106.628Z" fill="#FFD73E"/>
<path d="M60.9317 106.129C60.9101 106.176 60.8857 106.238 60.8608 106.308C60.8401 106.371 60.821 106.425 60.7987 106.5C60.7852 106.545 60.7708 106.588 60.7556 106.628C60.7708 106.588 60.7854 106.545 60.7989 106.5C60.8213 106.426 60.8403 106.371 60.8611 106.308C60.8859 106.238 60.9101 106.176 60.9317 106.129V106.129Z" fill="#FFD73E"/>
<path d="M60.9861 106.032C60.9791 106.04 60.9709 106.052 60.9617 106.068C60.9709 106.052 60.9793 106.04 60.9863 106.033C60.9863 106.033 60.9861 106.032 60.9861 106.032L60.9861 106.032Z" fill="#FFD73E"/>
<path d="M65.3601 105.995C65.3374 106.04 65.3154 106.094 65.2907 106.16C65.2732 106.206 65.2577 106.247 65.2427 106.282C65.2577 106.247 65.2734 106.206 65.2909 106.16C65.3157 106.094 65.3374 106.04 65.3601 105.995Z" fill="#FFD73E"/>
<path d="M65.4349 105.887C65.4066 105.915 65.3829 105.95 65.3602 105.995C65.3829 105.95 65.4068 105.915 65.4351 105.887C65.435 105.887 65.4348 105.887 65.4348 105.887H65.4349Z" fill="#FFD73E"/>
<path d="M65.756 105.789C65.6517 105.805 65.5707 105.825 65.5079 105.849C65.5706 105.825 65.6519 105.805 65.756 105.789Z" fill="#FFD73E"/>
<path d="M65.9607 105.782C65.9054 105.782 65.8553 105.783 65.8099 105.785C65.809 105.785 65.8085 105.785 65.808 105.785C65.7889 105.786 65.7738 105.788 65.7563 105.789C65.7739 105.788 65.7891 105.786 65.8083 105.785C65.8089 105.785 65.8091 105.785 65.8097 105.785C65.8552 105.783 65.9053 105.782 65.9607 105.782L65.9607 105.782Z" fill="#FFD73E"/>
<path d="M66.4024 105.75C66.3408 105.761 66.2751 105.768 66.2058 105.773C66.1882 105.775 66.1683 105.775 66.15 105.776C66.1684 105.775 66.1884 105.775 66.206 105.773C66.2753 105.769 66.3408 105.761 66.4024 105.75V105.75Z" fill="#FFD73E"/>
<path d="M54.3539 106.698C54.2501 106.796 54.1537 106.88 54.0632 106.951C54.1537 106.88 54.2501 106.796 54.3539 106.698Z" fill="#FFD73E"/>
<path d="M55.175 105.927C55.1365 105.951 55.0943 105.98 55.0486 106.015L54.5154 106.542C54.4595 106.598 54.4059 106.65 54.3539 106.698C54.4059 106.65 54.4598 106.598 54.5156 106.543L55.0488 106.015C55.0945 105.98 55.1365 105.951 55.175 105.927V105.927Z" fill="#FFD73E"/>
<path d="M58.2735 105.64L57.6344 105.964C57.4599 106.052 57.3208 106.117 57.1918 106.16L56.8996 106.311L56.4785 106.187C56.2965 106.153 56.0801 106.097 55.7895 106.015L55.2802 105.87C55.2485 105.884 55.2136 105.903 55.175 105.927C55.2136 105.903 55.2487 105.884 55.2804 105.87L55.7898 106.015C56.0803 106.097 56.2967 106.153 56.4787 106.187L56.8999 106.311L57.192 106.161C57.321 106.117 57.4601 106.052 57.6347 105.964L58.2738 105.64L58.2735 105.64Z" fill="#FFD73E"/>
<path d="M66.9004 105.535C66.8515 105.58 66.7926 105.619 66.7244 105.652C66.7926 105.619 66.8515 105.58 66.9004 105.535Z" fill="#FFD73E"/>
<path d="M30.5486 105.584C30.613 105.598 30.6748 105.607 30.7344 105.61C30.6748 105.607 30.613 105.598 30.5486 105.584Z" fill="#FFD73E"/>
<path d="M30.3713 105.535C30.4325 105.555 30.4918 105.571 30.5486 105.584C30.4918 105.571 30.4325 105.555 30.3713 105.535Z" fill="#FFD73E"/>
<path d="M34.3101 105.691C34.4742 105.707 34.6842 105.722 34.9288 105.733C34.6842 105.722 34.4742 105.707 34.3101 105.691Z" fill="#FFD73E"/>
<path d="M33.3828 105.52C33.4541 105.535 33.5261 105.549 33.6031 105.562C33.7868 105.604 33.9623 105.641 34.0997 105.664C34.1575 105.674 34.228 105.682 34.31 105.691C34.228 105.682 34.1573 105.673 34.0994 105.664C33.9621 105.641 33.7866 105.603 33.6029 105.561C33.5259 105.549 33.454 105.535 33.3828 105.52V105.52Z" fill="#FFD73E"/>
<path d="M42.5765 105.552C42.0463 105.588 41.5174 105.627 41.118 105.659C40.8814 105.678 40.6087 105.695 40.3109 105.71C40.6088 105.695 40.8815 105.679 41.1183 105.659C41.5176 105.627 42.0463 105.588 42.5765 105.552V105.552Z" fill="#FFD73E"/>
<path d="M45.5169 105.382L44.0435 105.461C43.6384 105.483 43.1068 105.516 42.5765 105.552C43.1068 105.516 43.6386 105.483 44.0438 105.462L45.5169 105.382V105.382Z" fill="#FFD73E"/>
<path d="M29.7861 105.261C29.8998 105.33 30.0132 105.389 30.1265 105.44C30.0131 105.389 29.8999 105.33 29.7861 105.261Z" fill="#FFD73E"/>
<path d="M67.0772 105.073C67.0752 105.09 67.0749 105.108 67.0749 105.127C67.0748 105.151 67.0738 105.174 67.0713 105.197C67.0738 105.174 67.0751 105.151 67.0751 105.128C67.0751 105.108 67.0752 105.09 67.0772 105.073V105.073Z" fill="#FFD73E"/>
<path d="M31.0688 105.571C31.0163 105.588 30.9625 105.6 30.9069 105.606C30.9625 105.6 31.0163 105.588 31.0688 105.571Z" fill="#FFD73E"/>
<path d="M31.4448 105.346C31.3231 105.455 31.2 105.529 31.0688 105.571C31.2 105.529 31.3231 105.455 31.4448 105.346Z" fill="#FFD73E"/>
<path d="M31.7731 105.022L31.5176 105.277C31.4933 105.302 31.4692 105.325 31.4448 105.346C31.4692 105.325 31.4936 105.302 31.5179 105.278L31.7733 105.022L32.5736 105.283C32.5924 105.289 32.6168 105.296 32.6365 105.302C32.6364 105.302 32.6363 105.302 32.6362 105.302C32.6166 105.296 32.5922 105.289 32.5734 105.283L31.7731 105.022Z" fill="#FFD73E"/>
<path d="M81.1311 105.036C81.2983 105.067 81.4721 105.07 81.653 105.045C81.4721 105.07 81.2983 105.067 81.1311 105.036Z" fill="#FFD73E"/>
<path d="M80.9844 105.002C81.0277 105.015 81.0717 105.025 81.116 105.034C81.121 105.035 81.1262 105.035 81.1311 105.036C81.1262 105.035 81.1207 105.035 81.1158 105.034C81.0715 105.025 81.0277 105.015 80.9844 105.002V105.002Z" fill="#FFD73E"/>
<path d="M67.1226 104.989C67.1149 104.994 67.1086 105.001 67.1032 105.007C67.1086 105.001 67.115 104.994 67.1226 104.989Z" fill="#FFD73E"/>
<path d="M67.4327 104.912C67.2576 104.929 67.1682 104.954 67.1226 104.989C67.1682 104.954 67.2577 104.929 67.4327 104.912Z" fill="#FFD73E"/>
<path d="M67.9096 104.885C67.8069 104.888 67.717 104.892 67.6381 104.897C67.717 104.892 67.8072 104.889 67.9099 104.886L68.9245 104.912C69.4642 104.927 70.0679 104.926 70.7132 104.912C70.0679 104.926 69.4639 104.926 68.9243 104.912L67.9096 104.885Z" fill="#FFD73E"/>
<path d="M82.2167 104.885C82.1192 104.925 82.0234 104.959 81.9295 104.986C82.0234 104.959 82.1192 104.925 82.2167 104.885Z" fill="#FFD73E"/>
<path d="M73.4139 104.809C73.1988 104.818 72.9785 104.826 72.7503 104.832C72.3976 104.851 72.0497 104.868 71.7092 104.881C72.0497 104.868 72.3978 104.852 72.7505 104.832C72.9788 104.826 73.1988 104.818 73.4139 104.809V104.809Z" fill="#FFD73E"/>
<path d="M80.3699 104.666C80.4857 104.763 80.6057 104.842 80.7301 104.903C80.6057 104.842 80.4857 104.763 80.3699 104.666Z" fill="#FFD73E"/>
<path d="M28.9192 104.551C28.9784 104.611 29.0372 104.669 29.0957 104.724C29.0373 104.669 28.9783 104.611 28.9192 104.551Z" fill="#FFD73E"/>
<path d="M76.6327 104.539C75.6773 104.653 74.8789 104.728 74.0471 104.777C74.8789 104.728 75.6773 104.653 76.6327 104.539Z" fill="#FFD73E"/>
<path d="M82.93 104.393C82.8008 104.509 82.6759 104.61 82.5565 104.693C82.6759 104.61 82.8008 104.509 82.93 104.393Z" fill="#FFD73E"/>
<path d="M79.8385 104.118L79.6076 104.147L78.2075 104.336C77.9174 104.376 77.6432 104.412 77.3817 104.446C77.6432 104.412 77.9177 104.376 78.2077 104.337L79.6079 104.147L79.8388 104.118L79.8385 104.118Z" fill="#FFD73E"/>
<path d="M83.9997 103.196C83.9148 103.307 83.8292 103.414 83.7435 103.517C83.6734 103.603 83.6038 103.686 83.5345 103.766C83.6038 103.686 83.6737 103.603 83.7437 103.517C83.8295 103.414 83.9147 103.307 83.9997 103.196Z" fill="#FFD73E"/>
<path d="M88.5803 90.7123C88.5031 91.2125 88.4124 91.7251 88.3088 92.2452C88.4124 91.7251 88.5031 91.2125 88.5803 90.7123Z" fill="#FFD73E"/>
<path d="M88.8902 86.5833C88.8998 86.6556 88.9084 86.7127 88.915 86.7341C88.9304 86.7845 88.9333 86.9243 88.9261 87.1274C88.9333 86.9245 88.9306 86.7844 88.9152 86.7341C88.9087 86.7127 88.8998 86.6556 88.8902 86.5833H88.8902Z" fill="#FFD73E"/>
<path d="M27.11 85.6334C27.1408 85.6711 27.1687 85.7037 27.1932 85.7303C27.1932 85.7303 27.1934 85.7303 27.1934 85.7303C27.1689 85.7037 27.1408 85.6711 27.11 85.6334H27.11Z" fill="#FFD73E"/>
<path d="M88.7564 85.2345C88.778 85.3506 88.797 85.4719 88.8136 85.5982C88.797 85.4719 88.778 85.3506 88.7564 85.2345Z" fill="#FFD73E"/>
<path d="M26.6687 85.0352C26.7067 85.0858 26.7508 85.1422 26.7784 85.1829C26.8591 85.3022 26.9385 85.4123 27.0098 85.506C26.9385 85.4123 26.8594 85.3022 26.7786 85.1829C26.751 85.1421 26.7067 85.0859 26.6687 85.0352V85.0352Z" fill="#FFD73E"/>
<path d="M88.4272 84.2085C88.4738 84.295 88.5168 84.39 88.5562 84.493C88.5168 84.39 88.4738 84.295 88.4272 84.2085Z" fill="#FFD73E"/>
<path d="M88.1925 83.8783C88.2501 83.9382 88.3041 84.0072 88.3544 84.0851C88.3041 84.0072 88.2501 83.9382 88.1925 83.8783Z" fill="#FFD73E"/>
<path d="M78.2217 83.3394C78.2481 83.3741 78.2747 83.405 78.3011 83.4323C78.2747 83.4049 78.2481 83.3741 78.2217 83.3394Z" fill="#FFD73E"/>
<path d="M25.0859 83.2612C25.1724 83.3476 25.2675 83.4443 25.373 83.5524C25.4071 83.5873 25.443 83.6272 25.4777 83.6635C25.5388 83.7267 25.6 83.7914 25.6611 83.8577C25.8914 84.105 26.1226 84.3652 26.3203 84.5992C26.1226 84.3652 25.8916 84.105 25.6614 83.8577C25.6002 83.7914 25.539 83.7267 25.478 83.6635C25.4433 83.6273 25.4074 83.5873 25.3733 83.5524C25.2677 83.4443 25.1724 83.3476 25.0859 83.2612Z" fill="#FFD73E"/>
<path d="M87.6283 83.1116C87.6368 83.1385 87.6425 83.1654 87.6444 83.1917C87.6425 83.1654 87.6368 83.1386 87.6283 83.1116Z" fill="#FFD73E"/>
<path d="M30.9055 80.6472C30.9378 80.6719 30.9681 80.6986 30.9972 80.7285C30.9681 80.6986 30.9378 80.6719 30.9055 80.6472Z" fill="#FFD73E"/>
<path d="M26.8034 79.0573C27.9656 79.4809 29.1038 79.9051 29.8811 80.2036C29.1038 79.9051 27.9656 79.4809 26.8034 79.0573V79.0573Z" fill="#FFD73E"/>
<path d="M23.5969 77.8798C23.769 77.952 23.9749 78.0326 24.2209 78.1247C23.9749 78.0326 23.769 77.952 23.5969 77.8798Z" fill="#FFD73E"/>
<path d="M23.1767 77.6858C23.2867 77.7439 23.4248 77.8077 23.5969 77.8798C23.4248 77.8077 23.2867 77.7439 23.1767 77.6858V77.6858Z" fill="#FFD73E"/>
<path d="M75.4108 77.5248C75.5481 77.8661 75.692 78.2106 75.8459 78.5595C75.692 78.2105 75.5481 77.8662 75.4108 77.5248Z" fill="#FFD73E"/>
<path d="M22.8203 77.4506C22.832 77.4615 22.8466 77.4732 22.8642 77.4856C22.8467 77.4732 22.8319 77.4614 22.8203 77.4506Z" fill="#FFD73E"/>
<path d="M73.7786 69.3333C73.7604 69.3594 73.7441 69.3844 73.7299 69.4084C73.7084 69.4554 73.6899 69.5035 73.6746 69.5543C73.6899 69.5035 73.7086 69.4554 73.7302 69.4084C73.7444 69.3844 73.7604 69.3594 73.7786 69.3333Z" fill="#FFD73E"/>
<path d="M74.9428 68.049C74.8084 68.1958 74.672 68.342 74.5418 68.4791C74.4262 68.6007 74.3248 68.7075 74.2359 68.8024C74.3248 68.7075 74.4265 68.6007 74.542 68.4791C74.6723 68.342 74.8083 68.1958 74.9428 68.049Z" fill="#FFD73E"/>
<path d="M76.2231 66.5349C76.135 66.6446 76.0225 66.7875 75.9076 66.9372C75.8501 67.0121 75.7687 67.1114 75.6706 67.2272C75.7686 67.1115 75.8504 67.012 75.9079 66.9372C76.0228 66.7874 76.135 66.6446 76.2231 66.5349V66.5349Z" fill="#FFD73E"/>
<path d="M76.4952 66.2241C76.4566 66.2703 76.4226 66.3068 76.394 66.3321C76.3752 66.3488 76.3113 66.425 76.2231 66.5347C76.3112 66.4251 76.3755 66.3488 76.3943 66.3321C76.4229 66.3068 76.4566 66.2703 76.4952 66.2241V66.2241Z" fill="#FFD73E"/>
<path d="M76.7767 65.8393C76.668 66.0003 76.5723 66.1318 76.4952 66.2241C76.5723 66.1318 76.668 66.0004 76.7767 65.8393Z" fill="#FFD73E"/>
<path d="M25.8136 64.8921C25.9724 64.9179 26.0946 64.9443 26.1754 64.9712C26.0946 64.9443 25.9725 64.9179 25.8136 64.8921Z" fill="#FFD73E"/>
<path d="M22.465 64.6344C22.8844 64.6531 23.2232 64.672 23.4508 64.6904C23.2232 64.672 22.8844 64.6531 22.465 64.6344Z" fill="#FFD73E"/>
<path d="M19.2259 64.5295C20.4652 64.5605 21.6264 64.5971 22.465 64.6344C21.6264 64.5971 20.4652 64.5605 19.2259 64.5295Z" fill="#FFD73E"/>
<path d="M12.8868 64.451C12.7579 64.4535 12.6477 64.4565 12.56 64.4605C12.2825 64.4731 12.0461 64.4863 11.8424 64.4959C12.0461 64.4863 12.2825 64.4733 12.56 64.4607C12.6477 64.4567 12.7579 64.4534 12.8868 64.451V64.451Z" fill="#FFD73E"/>
<path d="M13.3253 64.4458C13.1634 64.4469 13.0158 64.4486 12.8868 64.451C13.0158 64.4486 13.1634 64.4471 13.3253 64.4461C13.9619 64.4551 14.6492 64.4629 15.3971 64.4673C16.065 64.4715 16.7079 64.4789 17.3389 64.4879C16.7079 64.4789 16.065 64.4712 15.3971 64.4671C14.6492 64.4626 13.9619 64.4548 13.3253 64.4458V64.4458Z" fill="#FFD73E"/>
<path d="M10.5652 64.3213C10.5828 64.3419 10.597 64.356 10.6065 64.3619C10.6121 64.3656 10.6359 64.3689 10.6678 64.3723C10.6883 64.3848 10.7092 64.3961 10.7309 64.4066C10.7092 64.3961 10.6883 64.3845 10.6678 64.3721C10.6359 64.3686 10.6121 64.3649 10.6065 64.3617C10.5969 64.3558 10.5828 64.3419 10.5652 64.3213V64.3213Z" fill="#FFD73E"/>
<path d="M10.3378 64.0466C10.3937 64.1225 10.4476 64.1865 10.5023 64.2407C10.4476 64.1865 10.3938 64.1225 10.3378 64.0466V64.0466Z" fill="#FFD73E"/>
<path d="M77.9567 63.8748C77.8902 63.9926 77.8213 64.1112 77.7504 64.2303C77.6108 64.478 77.4706 64.7204 77.3351 64.9481C77.4706 64.7205 77.6111 64.4779 77.7506 64.2303C77.8215 64.1112 77.8902 63.9926 77.9567 63.8748V63.8748Z" fill="#FFD73E"/>
<path d="M78.3299 63.1778C78.2144 63.4067 78.0899 63.6393 77.9568 63.8748C78.0899 63.6393 78.2143 63.4067 78.3299 63.1778V63.1778Z" fill="#FFD73E"/>
<path d="M78.6646 62.4981C78.6119 62.6071 78.5555 62.7207 78.4966 62.8375C78.4433 62.9499 78.3878 63.0634 78.33 63.1778C78.3878 63.0634 78.4435 62.9499 78.4968 62.8375C78.5558 62.7207 78.6119 62.6071 78.6646 62.4981Z" fill="#FFD73E"/>
<path d="M78.9338 61.9084C78.8617 62.0802 78.7701 62.2801 78.6646 62.4981C78.7701 62.2801 78.8617 62.0802 78.9338 61.9084Z" fill="#FFD73E"/>
<path d="M79.1349 61.3357C79.1002 61.4566 79.0638 61.5699 79.0265 61.6732C79.0009 61.7438 78.9699 61.8225 78.9338 61.9084C78.9699 61.8225 79.0012 61.7438 79.0267 61.6732C79.0641 61.5699 79.1002 61.4566 79.1349 61.3357Z" fill="#FFD73E"/>
<path d="M79.5171 58.1356C79.5217 58.2379 79.5252 58.3419 79.528 58.4481C79.5311 58.5652 79.5303 58.6902 79.5258 58.8215C79.5303 58.6903 79.5313 58.5651 79.5282 58.4481C79.5254 58.3418 79.5217 58.238 79.5171 58.1356H79.5171Z" fill="#FFD73E"/>
<path d="M79.4441 57.2316C79.4672 57.4238 79.4852 57.6157 79.4987 57.8116C79.4852 57.6156 79.4672 57.4238 79.4441 57.2316Z" fill="#FFD73E"/>
<path d="M79.0444 55.3098C79.1065 55.5307 79.162 55.7415 79.2099 55.9418C79.162 55.7414 79.1065 55.5307 79.0444 55.3098Z" fill="#FFD73E"/>
<path d="M33.1444 49.9873C33.1261 50.0683 33.1065 50.129 33.0853 50.1702C33.1065 50.129 33.1261 50.0683 33.1444 49.9873Z" fill="black"/>
<path d="M2.75153 48.3842C3.07639 49.2084 3.42442 50.0606 3.78838 50.9242C3.42442 50.0606 3.07639 49.2084 2.75153 48.3842Z" fill="#FFD73E"/>
<path d="M75.8336 44.2516C75.8934 44.5166 75.9541 44.7965 76.0171 45.0949C76.1013 45.4942 76.1799 45.8606 76.2551 46.2022C76.1799 45.8606 76.1015 45.4942 76.0173 45.0949C75.9543 44.7965 75.8934 44.5166 75.8336 44.2516Z" fill="black"/>
<path d="M28.2113 39.6561C28.9778 39.9622 29.7372 40.2618 30.4349 40.5285C29.7372 40.2618 28.9777 39.9622 28.2113 39.6561V39.6561Z" fill="#FFD73E"/>
<path d="M73.7559 37.9586C73.7622 38.0725 73.7697 38.1721 73.7786 38.2598L74.3652 39.6495L73.7788 38.2598C73.77 38.1721 73.7622 38.0725 73.7559 37.9586Z" fill="black"/>
<path d="M73.6952 34.6247C73.7176 35.3063 73.7302 35.9652 73.7302 36.5632C73.7302 35.9652 73.7176 35.3063 73.6952 34.6247Z" fill="#FFD73E"/>
<path d="M62.4708 31.1003C62.496 31.2042 62.5208 31.2971 62.5455 31.3785C62.5475 31.3851 62.5481 31.3899 62.5497 31.396C62.5484 31.3899 62.5475 31.3851 62.5457 31.3785C62.521 31.2971 62.496 31.2041 62.4708 31.1003H62.4708Z" fill="#FFD73E"/>
<path d="M8.8056 29.414C9.05548 29.5963 9.3337 29.796 9.63684 30.0093C9.33375 29.7961 9.05545 29.5962 8.8056 29.414Z" fill="#FFD73E"/>
<path d="M71.7985 20.2102C71.9243 20.7267 72.0414 21.2271 72.1525 21.7185C72.0414 21.2272 71.9243 20.7266 71.7985 20.2102V20.2102Z" fill="#FFD73E"/>
<path d="M62.0047 28.1647C62.1606 29.4594 62.3197 30.4769 62.4708 31.1001C62.3197 30.4769 62.1606 29.4596 62.0047 28.1647Z" fill="#FFD73E"/>
<path d="M61.6282 24.4169C61.7472 25.8138 61.8748 27.0856 62.0047 28.1647C61.8748 27.0856 61.7472 25.8138 61.6282 24.4169Z" fill="#FFD73E"/>
<path d="M61.2083 18.2135C61.232 18.6692 61.2569 19.1222 61.2832 19.5716C61.2994 19.8986 61.3165 20.2006 61.3345 20.4694C61.343 20.5966 61.3536 20.7301 61.3626 20.8589C61.4433 22.102 61.5331 23.2994 61.6282 24.4169C61.5331 23.2994 61.4435 22.102 61.3628 20.8589C61.3538 20.7301 61.3432 20.5966 61.3347 20.4694C61.3167 20.2006 61.2996 19.8986 61.2834 19.5716C61.2572 19.1223 61.232 18.6692 61.2083 18.2135Z" fill="#FFD73E"/>
<path d="M71.1159 17.6765C71.2233 18.0408 71.326 18.4052 71.4255 18.7696C71.326 18.4053 71.2232 18.0407 71.1159 17.6765Z" fill="#FFD73E"/>
<path d="M70.7746 16.5617C70.892 16.9325 71.0062 17.3044 71.1159 17.6765C71.0062 17.3043 70.892 16.9326 70.7746 16.5617Z" fill="#FFD73E"/>
<path d="M69.8673 13.9087C70.0758 14.4749 70.2763 15.047 70.4688 15.6224C70.2763 15.047 70.0758 14.4748 69.8673 13.9087Z" fill="#FFD73E"/>
<path d="M68.405 10.3048C68.6631 10.884 68.9148 11.4758 69.159 12.0774C68.9148 11.4758 68.6631 10.884 68.405 10.3048Z" fill="#FFD73E"/>
<path d="M67.8808 9.16423C68.0581 9.53819 68.233 9.91873 68.405 10.3048C68.233 9.91873 68.0581 9.53819 67.8808 9.16423Z" fill="#FFD73E"/>
<path d="M67.3422 8.06285C67.5239 8.42293 67.7035 8.79027 67.8808 9.16423C67.7035 8.79027 67.5239 8.42293 67.3422 8.06285Z" fill="#FFD73E"/>
<path d="M65.6627 5.0447C65.853 5.35265 66.0424 5.67063 66.2306 5.99765C66.0424 5.67064 65.853 5.35264 65.6627 5.0447Z" fill="#FFD73E"/>
<path d="M64.8012 3.72872C65.0894 4.14295 65.3769 4.58242 65.6625 5.04447C65.3769 4.58252 65.0893 4.14287 64.8012 3.72872Z" fill="#FFD73E"/>
<path d="M63.7123 2.29149C63.7849 2.37812 63.8593 2.46936 63.9359 2.56518C64.032 2.68536 64.1281 2.80846 64.2243 2.93483C64.1282 2.80855 64.0322 2.68528 63.9362 2.56518C63.8596 2.46936 63.7849 2.37812 63.7123 2.29149V2.29149Z" fill="#FFD73E"/>
<path d="M63.112 1.63421C63.2951 1.81285 63.4948 2.03159 63.7124 2.29149C63.4947 2.03152 63.2951 1.81287 63.112 1.63421Z" fill="#FFD73E"/>
<path d="M61.057 12.8815C61.0759 14.5367 61.1041 16.0084 61.1414 16.8391C61.162 17.2992 61.1845 17.7576 61.2082 18.2133C61.1845 17.7575 61.1622 17.2993 61.1416 16.8391C61.1044 16.0084 61.0759 14.5367 61.057 12.8815Z" fill="#FFD73E"/>
<path d="M61.0461 5.51456C61.0367 6.15753 61.0314 6.97383 61.03 7.87496C61.0205 8.90668 61.0245 10.0182 61.0411 11.1822C61.0453 11.7578 61.0507 12.3298 61.057 12.8815C61.0507 12.3298 61.0455 11.7578 61.0414 11.1822C61.0247 10.0182 61.0207 8.90668 61.0303 7.87496C61.0316 6.97383 61.0367 6.15753 61.0461 5.51456V5.51456Z" fill="#FFD73E"/>
<path d="M61.0747 4.39735C61.0627 4.6475 61.0532 5.03233 61.0461 5.51456C61.0532 5.03233 61.0627 4.6475 61.0747 4.39735Z" fill="#FFD73E"/>
<path d="M61.7641 1.15584C61.4929 1.40129 61.3474 1.84218 61.2101 2.98801C61.2089 2.99889 61.2075 3.00828 61.2064 3.01968C61.1671 3.35137 61.1283 3.73177 61.0875 4.19361C61.0829 4.2457 61.0787 4.31396 61.0747 4.39734C61.0787 4.31396 61.0831 4.2457 61.0877 4.19361C61.1285 3.73177 61.1673 3.35137 61.2066 3.01968C61.208 3.00829 61.209 2.99889 61.2104 2.98801C61.3476 1.84219 61.4931 1.40129 61.7644 1.15584C61.7643 1.15589 61.7641 1.1558 61.7641 1.15584H61.7641Z" fill="#FFD73E"/>
<path d="M61.9927 11.2702L61.9936 12.1915C61.9938 12.4103 61.9982 12.6817 62.004 12.975L62.0226 13.6781C62.1085 16.7052 62.3795 21.8744 62.5341 23.0696C62.5599 23.2693 62.6162 23.8955 62.6591 24.4612C62.7617 25.8122 63.2767 29.8237 63.4428 30.5649C63.6407 31.4476 63.7321 31.5461 64.6196 31.832C65.4137 32.0878 66.0466 32.3932 66.3837 32.6471C66.4916 32.7201 66.5624 32.7833 66.5822 32.8315C66.7095 32.9919 66.6633 33.1115 66.3877 33.1508C66.2428 33.1714 65.8344 33.1009 65.4802 32.9941C64.4555 32.6851 61.4081 32.0994 60.2916 31.9969C60.1112 31.9804 59.9178 31.9666 59.7185 31.9539C58.9724 31.921 58.1122 31.9142 56.9702 31.9152C56.25 31.9159 55.611 31.9257 55.0031 31.9421C53.6109 32.0024 52.2477 32.1119 51.162 32.265C47.7744 32.7424 46.6905 32.9723 44.2039 33.7405C43.6068 33.9249 43.1968 34.0473 42.9281 34.1484C42.8545 34.1777 42.7873 34.2057 42.7289 34.2318C42.3353 34.4238 42.5293 34.5696 42.9662 35.0316C42.9902 35.057 43.0099 35.0793 43.0329 35.1039C43.1634 35.2306 43.2783 35.3611 43.3763 35.4901C43.7321 35.9178 43.862 36.1879 43.7788 36.3226C43.6365 36.5528 43.3281 36.4352 42.7107 35.9156C40.8716 34.3676 35.8225 31.6554 31.8607 30.0872C26.9363 28.1381 21.8537 26.7248 16.6135 25.8477C15.2056 25.612 15.1859 25.5429 15.1169 26.448C15.1075 26.7757 15.1009 27.1593 15.1009 27.5874C15.1009 28.0352 15.1041 28.3829 15.1132 28.6753C15.2476 29.9689 15.63 31.1751 16.2453 32.2108L16.4911 32.6249C16.6435 32.8384 16.7874 32.9985 16.9068 33.0733C16.9878 33.124 17.1876 33.2319 17.4379 33.3642L20.0427 34.6625C21.8719 35.5742 23.3966 36.3202 23.431 36.3202C23.4654 36.3202 23.9195 36.5181 24.4402 36.76C27.9935 38.4111 34.8531 40.9261 36.7385 41.2691C37.4932 41.4064 37.6415 41.4597 37.6647 41.6857C37.6666 41.694 37.6694 41.7022 37.6694 41.7103C37.6694 41.7174 37.6676 41.7238 37.6672 41.7307C37.6681 41.7449 37.6694 41.7571 37.6694 41.7727C37.6694 41.9299 37.5794 42.0139 37.3972 42.0268C37.2977 42.0338 37.156 42.0357 36.9973 42.0339C36.841 42.0398 36.6581 42.034 36.4487 42.0164C36.1374 42.0011 35.8476 41.9778 35.6874 41.9521C35.6089 41.9478 35.5455 41.9458 35.4922 41.9455C35.2633 42.0608 35.049 42.8237 34.7172 44.6422C34.4341 46.194 34.2523 48.0325 34.1876 49.7669C34.1822 50.7782 34.2079 51.9979 34.2658 53.4981C34.2759 53.5978 34.2856 53.6989 34.2972 53.7936C34.3472 54.1997 34.447 55.8695 34.5192 57.5042C34.7285 62.2477 34.994 64.0417 35.7879 66.0732C36.126 66.9385 36.5234 67.7269 36.9902 68.4506C37.4317 69.1253 37.9385 69.7509 38.5153 70.331C38.9479 70.7661 39.4336 71.1853 39.949 71.5768C40.6469 72.0938 41.4243 72.5696 42.2931 73.0136C42.8139 73.2797 43.5523 73.5941 43.9338 73.712C44.2945 73.8234 44.5281 73.94 44.6228 74.0525C44.6669 74.1006 44.688 74.1499 44.688 74.2059C44.688 74.2265 44.6843 74.2452 44.679 74.2631C44.6582 74.5653 44.2323 74.5652 43.1149 74.2891C41.1657 73.8076 38.4483 71.9601 36.9897 70.1244L36.5052 69.5149C36.4571 69.4817 36.4165 69.4702 36.3828 69.4863L36.3126 69.9432C36.2651 70.2524 36.1705 70.9955 36.1022 71.5945C35.8516 73.7947 34.1967 79.6826 33.0266 82.5365C32.8978 82.8507 32.7875 83.1436 32.7374 83.2989C32.7258 83.3461 32.7183 83.3865 32.7137 83.4209C32.7419 83.476 32.9585 83.5705 33.2223 83.64C34.1931 83.8955 35.4994 84.6074 36.0476 85.1795C36.5913 85.747 36.7102 86.0739 36.479 86.1074C36.3439 86.1662 36.0911 86.0948 35.829 85.9056C35.7077 85.8444 35.5739 85.7702 35.426 85.6803C34.654 85.2113 34.202 84.9827 33.6515 84.8144C33.6184 84.8042 33.5849 84.7953 33.5516 84.7856C33.3849 84.7377 33.2097 84.6936 33.0106 84.6499C31.3036 84.2755 29.8428 84.5224 28.844 85.327C28.7629 85.4001 28.6787 85.4785 28.5857 85.5695C28.5122 85.6414 28.4426 85.7136 28.3758 85.7851C28.3058 85.8683 28.239 85.9551 28.1761 86.046C27.9699 86.3441 27.8858 86.474 27.8922 86.5967C27.9122 86.6596 27.9443 86.7382 27.9846 86.8257C27.9961 86.8447 28.006 86.862 28.0194 86.8834C28.5172 87.6811 29.0797 88.8617 29.4153 89.8129C29.9102 91.2158 29.9558 91.7427 29.5828 91.7427C29.4302 91.7427 29.2524 91.5087 29.008 90.9864C28.4089 89.7059 27.589 88.1781 26.8887 86.9789C26.2819 85.9598 25.7279 85.1181 25.5373 84.9685C25.5036 84.9488 25.4812 84.9517 25.4744 84.985C25.446 85.1252 25.7581 86.4185 26.1326 87.7347C26.2353 88.0363 26.2859 88.2431 26.2827 88.3821C26.2855 88.4926 26.2549 88.561 26.1882 88.626C26.0622 88.7486 25.9583 88.6926 25.6491 88.3357C25.0179 87.6074 24.3584 85.4872 24.3584 84.1864C24.3584 83.9612 24.327 83.7808 24.2679 83.6525C24.2439 83.6041 24.2183 83.564 24.191 83.5367C24.1397 83.4854 24.1021 83.4523 24.0741 83.4431C24.0546 83.451 24.0365 83.4657 24.0204 83.4873C24.0044 83.5383 23.9995 83.6558 23.9977 83.8158C24.0041 83.9462 24.0155 84.1098 24.0322 84.3282C24.1112 85.3592 24.313 86.2946 24.7386 87.6023C24.8748 88.0207 24.9554 88.4427 24.918 88.5402C24.7297 89.031 24.0912 88.4203 23.6484 87.3258C23.4184 86.7574 23.4031 86.7438 23.3969 87.102C23.3785 88.1647 24.0192 91.1095 24.9199 94.1021C26.385 98.97 28.7937 103.414 30.4356 104.278C30.6263 104.378 30.7114 104.413 30.7955 104.354C30.8211 104.33 30.8502 104.299 30.8823 104.263C30.9111 104.225 30.9421 104.181 30.9801 104.123C31.1649 103.841 31.2011 103.447 31.2346 101.348C31.264 99.513 31.312 98.8867 31.427 98.8425C31.8296 98.6881 32.107 99.3391 32.2214 100.645C32.3103 101.293 32.3534 102.055 32.3252 102.812L32.2871 103.826L32.3346 103.855L32.708 104.013C33.6304 104.401 33.9851 104.484 35.8791 104.502C36.3111 104.504 36.7308 104.507 37.3669 104.507C39.9148 104.503 42.525 104.397 43.2408 104.265C43.3433 104.246 44.0347 104.191 44.7776 104.143C45.8778 104.072 46.1369 104.019 46.1746 103.859C46.2279 103.632 46.1339 103.459 44.628 101C40.6434 94.4941 38.1036 89.1053 37.214 85.2687C37.0659 84.6299 36.9669 84 36.919 83.4632C36.8729 83.0997 36.8464 82.7835 36.8427 82.5405C36.8263 82.3093 36.8336 82.1816 36.8729 82.1217C36.8876 82.0639 36.9071 82.0237 36.9325 82.008C36.9699 81.9848 37.0119 81.9774 37.0551 81.9811C37.0664 81.9741 37.078 81.9683 37.0904 81.966C37.223 81.9396 37.3078 82.0172 37.3638 82.2144C37.4022 82.2823 37.4274 82.3583 37.4274 82.4368C37.4274 82.4465 37.4322 82.4727 37.4359 82.4944C37.8223 84.0424 38.8915 87.5079 39.3248 88.5965C39.748 89.6597 40.5688 91.5538 41.0539 92.6127C41.1848 92.8817 41.3176 93.1522 41.4566 93.4274C41.5418 93.567 41.7989 94.045 42.0785 94.5864C42.3878 95.1854 42.7385 95.8389 42.8579 96.0386C42.9774 96.2382 43.2552 96.7283 43.4753 97.1276C43.6953 97.527 43.9688 97.9898 44.0829 98.1562C44.1971 98.3226 44.4275 98.7038 44.5951 99.0033C44.7626 99.3028 45.4238 100.398 46.0645 101.438C46.6885 102.451 47.0648 103.143 47.184 103.49C47.2104 103.555 47.2292 103.609 47.2292 103.634C47.2292 103.64 47.2274 103.648 47.2269 103.654C47.2278 103.662 47.2292 103.67 47.2292 103.677C47.2291 103.868 47.0681 104.366 46.8714 104.782C46.7035 105.136 46.5906 105.433 46.5901 105.513C46.6414 105.508 46.7488 105.469 46.8796 105.413C46.9792 105.362 47.0921 105.302 47.2115 105.234C47.635 104.992 47.9167 104.897 48.1306 104.956C48.2747 104.983 48.378 105.085 48.4776 105.262C48.4958 105.293 48.5139 105.325 48.5317 105.36L48.5877 105.469C48.6448 105.577 48.688 105.654 48.7198 105.706C48.7625 105.718 48.8101 105.712 48.8659 105.688L49.2495 105.36C49.3509 105.273 49.4548 105.196 49.5539 105.129C49.558 105.126 49.5616 105.124 49.5657 105.121C49.6231 105.082 49.6795 105.044 49.7292 105.016C49.8018 104.968 49.8619 104.932 49.8862 104.932C49.8913 104.932 49.8991 104.936 49.9063 104.939C49.9182 104.936 49.9308 104.933 49.9398 104.933C49.9943 104.933 50.0767 104.984 50.1644 105.066C50.2643 105.138 50.3605 105.256 50.4596 105.424C50.4816 105.461 50.5051 105.496 50.5283 105.53C50.6375 105.672 50.7395 105.773 50.785 105.777C50.8215 105.771 50.9189 105.719 51.054 105.637C51.1901 105.55 51.3629 105.429 51.5392 105.296C51.8414 105.068 52.1751 104.876 52.3482 104.826C52.359 104.822 52.3669 104.82 52.3751 104.818C52.3807 104.816 52.3882 104.811 52.391 104.811V104.812C52.3914 104.812 52.3933 104.813 52.3937 104.813C52.3951 104.813 52.3978 104.812 52.3994 104.812C52.4012 104.812 52.4049 104.814 52.4072 104.814C52.4113 104.814 52.4179 104.812 52.4216 104.812C52.5715 104.812 52.8051 105.018 53.0382 105.357C53.3542 105.816 53.4846 105.934 53.8243 105.645C53.8602 105.612 53.8972 105.577 53.937 105.539C54.0472 105.433 54.1727 105.301 54.3329 105.125C54.6134 104.817 54.8354 104.644 55.0819 104.588C55.1068 104.577 55.1276 104.57 55.1417 104.57C55.1469 104.57 55.1596 104.573 55.166 104.573C55.392 104.546 55.6446 104.609 55.9835 104.751C56.1207 104.808 56.2487 104.857 56.3435 104.891C56.4016 104.898 56.4502 104.898 56.4803 104.887C56.4567 104.811 56.374 104.641 56.261 104.431C56.1587 104.296 56.0791 104.161 56.0176 104.007L55.8812 103.801L55.8798 103.752L55.7602 103.541L55.7297 101.121C55.6881 97.8147 55.2912 93.6161 54.5759 88.8947C54.3317 87.4168 54.0576 85.9456 53.7555 84.513C53.6521 84.0571 53.5359 83.5536 53.3913 82.9364C53.2722 82.428 53.1831 82.0251 53.116 81.696C53.02 81.2998 52.9636 81.0402 52.9517 80.8842C52.9517 80.8837 52.9517 80.8832 52.9517 80.8832C52.9517 80.8828 52.9513 80.8814 52.9513 80.8814C52.9195 80.7441 52.9299 80.6652 52.9862 80.6306C52.9914 80.6145 52.9974 80.6009 53.0054 80.5928C53.1583 80.4399 53.2991 80.5098 53.5263 80.9048C53.6293 81.0641 53.7368 81.278 53.8482 81.5441C53.8491 81.5459 53.85 81.5473 53.851 81.5493C54.3159 82.5556 54.6923 83.9312 55.1001 86.1151C55.2492 86.9138 55.4136 87.6144 55.4655 87.6724C55.5173 87.7303 55.5951 87.5125 55.6385 87.1883C55.7369 86.4512 56.4937 83.9712 56.8084 83.3543C56.9483 83.0799 57.0798 82.94 57.2038 82.9317C57.2985 82.8813 57.3823 82.9122 57.4538 83.0279C57.4612 83.0397 57.4566 83.1032 57.447 83.1882C57.4469 83.2406 57.4418 83.3047 57.4333 83.3775C57.4167 83.7072 57.3097 84.2659 57.101 85.2075C55.9064 90.5965 55.8738 90.8813 56.1783 93.2721C56.5007 95.8042 56.7885 99.7738 56.7887 101.692C56.789 103.121 56.8127 103.281 57.1168 103.901C57.3374 104.35 57.4613 104.54 57.6176 104.547C57.6771 104.528 57.7598 104.495 57.8525 104.456C57.8824 104.436 57.9119 104.417 57.9457 104.391C58.1019 104.273 58.2399 104.212 58.3772 104.212L58.5046 104.151L58.5143 104.146L58.5148 104.146L58.5157 104.146L58.6473 104.291C58.817 104.389 59.0015 104.578 59.2309 104.872C59.3788 105.061 59.5224 105.23 59.635 105.352C59.737 105.444 59.8156 105.498 59.8752 105.513C59.9102 105.46 59.9354 105.325 59.9354 105.166C59.9354 104.68 60.1325 104.327 60.4041 104.327C60.524 104.327 60.9983 104.571 61.4584 104.869C61.9186 105.167 62.3247 105.412 62.3608 105.414C62.397 105.415 62.4241 105.13 62.4213 104.781C62.4211 104.758 62.4214 104.741 62.4213 104.72C62.4181 104.652 62.4195 104.589 62.4241 104.531C62.4334 104.245 62.4751 104.157 62.6053 104.123C62.645 104.098 62.6903 104.085 62.7415 104.085C62.7522 104.085 62.7692 104.096 62.789 104.112C62.915 104.138 63.0115 104.249 63.1258 104.49C63.2545 104.762 63.4585 104.955 63.7067 105.042C63.8605 105.095 64.0039 105.129 64.0816 105.133C64.0852 105.133 64.0909 105.133 64.0941 105.133C64.1196 105.117 64.1316 105.09 64.1312 105.048C64.1049 104.949 64.0294 104.766 63.927 104.565C63.6892 104.099 63.683 104.037 63.8573 103.863C64.0315 103.688 64.09 103.712 64.5167 104.129C64.7645 104.37 64.9118 104.486 65.0792 104.531H65.0794C65.1027 104.537 65.1273 104.541 65.1517 104.544C65.1642 104.546 65.176 104.549 65.1888 104.55C65.1893 104.55 65.1893 104.55 65.1897 104.55C65.2586 104.556 65.3341 104.555 65.4216 104.547L65.8546 104.509L65.8414 104.488L65.6915 104.291L65.384 103.92C65.2267 103.73 65.0878 103.524 64.9986 103.358C64.9865 103.337 64.9761 103.317 64.9671 103.296C64.9237 103.207 64.8969 103.133 64.8969 103.088C64.8969 103.084 64.8992 103.074 64.9001 103.069C64.8997 103.063 64.8969 103.055 64.8969 103.05C64.8969 102.935 65.0272 102.622 65.2765 102.128C65.5739 101.476 65.9599 100.706 66.1087 100.515C66.5959 99.8906 69.0219 95.0756 69.7364 93.315C71.5204 88.9191 72.2504 85.5174 72.6966 79.5199C72.762 78.6416 72.8113 78.05 72.8616 77.6362C72.8879 77.3404 72.9141 77.1501 72.9583 77.0704C73.0433 76.7811 73.1527 76.8327 73.3416 77.0217C73.6399 77.32 73.6896 80.2049 73.4366 82.5487C72.9157 87.3755 71.873 91.1982 69.6908 95.8295C69.4018 96.4736 69.1497 97.0087 69.0108 97.2478C68.9881 97.2869 68.9327 97.3885 68.8966 97.453C68.4216 98.391 67.9022 99.3664 67.3316 100.394C66.6848 101.559 66.1419 102.58 66.0175 102.862C66.0088 102.881 66.0088 102.886 66.0042 102.898C65.9975 102.92 65.9961 102.932 65.9934 102.946C66.0015 103.018 66.079 103.169 66.1737 103.294C66.3142 103.48 67.0135 103.597 68.0619 103.652C68.5536 103.659 69.1813 103.662 70.0344 103.662C70.6129 103.662 71.1864 103.654 71.7435 103.644C73.5184 103.575 75.52 103.428 77.4602 103.205C78.1215 103.124 78.6926 103.051 79.0291 103C79.3802 102.93 79.4894 102.835 79.5365 102.567C79.5374 102.551 79.5393 102.536 79.5393 102.52C79.5393 102.435 79.5514 102.356 79.5719 102.286C79.6017 102.064 79.6533 101.991 79.8009 101.973C79.8698 101.94 79.9452 101.939 80.0176 101.98C80.1666 102.011 80.2369 102.118 80.3114 102.391C80.4714 102.977 80.9285 103.646 81.2492 103.793C81.2716 103.802 81.294 103.81 81.3164 103.817C81.3234 103.818 81.331 103.822 81.3379 103.823C81.3383 103.823 81.3382 103.822 81.3388 103.823C81.7685 103.883 82.4383 103.36 83.1872 102.379C85.5366 99.2993 87.4739 93.3184 87.8118 88.1932C87.8178 88.0467 87.8245 87.9049 87.8291 87.7488L87.8742 86.2152C87.8738 86.1862 87.8719 86.1699 87.871 86.1454C87.8641 86.1102 87.8574 86.0779 87.8516 86.0504L87.7042 86.8576C87.6053 87.6396 87.4331 88.3746 87.2404 88.9083C87.1587 89.155 87.0763 89.3381 86.9904 89.4635C86.8832 89.6423 86.7767 89.7455 86.6789 89.7455C86.636 89.7455 86.6045 89.7275 86.5803 89.6866C86.5091 89.6857 86.469 89.6626 86.461 89.5122C86.4467 89.3815 86.4623 89.155 86.4976 88.7471C86.5235 88.4486 86.5511 88.1615 86.5761 87.9188C86.6057 87.5075 86.6439 87.0903 86.6822 86.8023C86.8196 85.7683 86.8387 83.582 86.7139 83.5166C86.6685 83.5152 86.6123 83.5505 86.5534 83.6132C86.4158 83.8096 86.3208 84.2975 86.2643 85.0913C86.1616 86.537 85.8853 87.9425 85.5801 88.7809C85.5544 88.853 85.5282 88.9202 85.5019 88.9837C85.5014 88.9847 85.5014 88.9856 85.501 88.9865C85.3517 89.346 85.1948 89.5639 85.0493 89.5639C85.0489 89.5639 85.0484 89.5639 85.0484 89.5639C84.9337 89.5638 84.8604 89.5322 84.8236 89.4285C84.7542 89.2518 84.7892 88.8696 84.9125 88.0992C85.0126 87.4738 85.1258 86.4448 85.1642 85.8126L85.2283 84.7599C85.2004 84.7833 85.1675 84.82 85.1295 84.8714L84.7473 85.6311C83.5637 87.985 82.2626 91.6301 81.4862 94.7673C81.1077 96.2965 81.0207 96.5219 80.8098 96.5219C80.8075 96.5219 80.8061 96.5215 80.8036 96.5215C80.8023 96.5215 80.8004 96.5219 80.7991 96.5219C80.746 96.5219 80.705 96.5127 80.6717 96.4905C80.6631 96.4847 80.6551 96.4779 80.6476 96.4699C80.6119 96.4332 80.5875 96.3705 80.5698 96.2733C80.5126 96.098 80.5014 95.8179 80.5275 95.4612C80.5551 94.1371 81.0902 92.0972 82.1682 89.2075L82.6499 87.9161C82.6752 87.7449 82.5715 87.6021 82.2079 87.2023L81.3639 86.3952C79.829 84.9276 78.695 84.2606 77.4978 84.1856C77.4214 84.1837 77.342 84.1824 77.2527 84.1819C77.1412 84.1815 77.0267 84.1865 76.9107 84.1947C76.7625 84.2081 76.6128 84.2269 76.4597 84.2563C75.6436 84.4134 74.5245 84.8667 74.1778 85.1805C73.987 85.3532 73.9473 85.3689 73.8233 85.2098C73.7772 85.1909 73.7505 85.1524 73.7436 85.0985C73.6219 84.9112 73.6899 84.8171 74.2395 84.289C74.2611 84.2682 74.2825 84.2508 74.304 84.2308C74.3089 84.2263 74.313 84.2222 74.318 84.2176C74.3228 84.213 74.3284 84.2092 74.3333 84.2046C74.9382 83.6521 75.5374 83.384 76.5441 83.2153C76.7937 83.1734 76.9979 83.0844 76.9979 83.0175C76.9979 82.9505 76.5989 82.1225 76.1111 81.1775C74.2024 77.4795 73.2074 74.5516 72.8748 71.6543C72.7946 70.9555 72.6956 70.3461 72.655 70.3001C72.6144 70.2541 72.1182 70.5995 71.5525 71.0677C70.9867 71.536 70.3053 72.0637 70.0379 72.2405C69.7706 72.4172 69.3501 72.717 69.1034 72.9065C68.3748 73.4664 66.4362 74.491 65.5074 74.8072C64.7866 75.0526 64.6276 75.0732 64.54 74.9315C64.518 74.8958 64.5051 74.8551 64.4963 74.8136C64.465 74.7637 64.4512 74.7155 64.4692 74.6864C64.4714 74.6828 64.4814 74.6745 64.4892 74.6676C64.5042 74.543 64.5686 74.4376 64.6637 74.4376C64.7876 74.4376 66.9576 73.1469 67.9827 72.4636C69.6735 71.3366 71.7113 69.6737 73.1589 68.2687C73.5866 67.8331 74.0122 67.3818 74.4026 66.9489C75.0112 66.2335 75.7903 65.2347 76.244 64.5989C76.3622 64.424 76.475 64.2536 76.5805 64.091C76.5927 64.0681 76.6041 64.0462 76.6093 64.0315C76.6451 63.9312 76.7728 63.7067 76.8932 63.5328L77.0856 63.2546C77.0922 63.2406 77.0992 63.2265 77.1038 63.2156L76.5157 63.1458C75.6502 63.0433 74.6407 62.5028 74.0145 61.8062C73.1711 60.8682 72.7701 59.7378 72.7602 58.2759C72.7597 58.2458 72.7593 58.2156 72.7593 58.1854C72.7593 58.1783 72.759 58.1716 72.759 58.1646C72.759 58.1409 72.76 58.1181 72.7604 58.0946C72.7609 58.055 72.7613 58.0153 72.7627 57.9755C72.7961 56.8282 73.0634 55.9493 73.5909 55.2511C73.6913 55.1098 73.8014 54.9765 73.9201 54.8503C73.9228 54.8475 73.9252 54.8443 73.9279 54.8415C73.9382 54.8306 73.9485 54.8196 73.9591 54.8087C74.7377 53.9612 75.5986 53.5912 76.786 53.5736C77.1399 53.5683 77.431 53.5345 77.4733 53.4963C77.4765 53.4897 77.4779 53.4826 77.4787 53.4755C77.4706 53.4134 77.3349 53.0227 77.167 52.5795C76.3239 50.3542 75.7082 48.2587 75.3046 46.2423C74.9616 44.5285 74.5162 42.7547 74.1349 41.5834C73.721 40.3122 72.756 38.2624 72.2207 37.5173C71.9862 37.1909 71.7944 36.8965 71.7944 36.8631C71.7944 36.8297 71.4949 36.4121 71.1288 35.935C70.6922 35.3659 70.4816 35.0123 70.4774 34.8177C70.4573 34.6899 70.5138 34.6254 70.649 34.6254C70.6557 34.6254 70.6628 34.6265 70.6696 34.6268C70.6749 34.6263 70.6794 34.6254 70.685 34.6254C70.6877 34.6254 70.6936 34.6273 70.6973 34.6282C70.7161 34.6268 70.7349 34.6254 70.7561 34.6254C70.9658 34.6254 71.2925 34.8901 71.9109 35.5613L72.7733 36.4972L72.7568 35.0203L72.7254 33.8988C72.7162 33.5724 72.7031 33.2459 72.689 32.9194C72.5242 29.8815 72.0685 25.9853 71.5389 23.2424C71.5093 23.0917 71.479 22.9412 71.4484 22.791C71.0967 21.1026 70.2392 17.9008 69.6328 16.0256C68.9778 14.0001 68.9711 13.9905 67.5477 13.027C65.9375 11.9371 64.5903 11.4411 62.8702 11.305L62.4346 11.2705L61.9927 11.2702ZM69.4875 43.1669H69.4877C70.9735 43.1846 72.3912 44.0842 73.1064 45.6223C73.5539 46.5846 73.5496 48.0573 73.0965 49.0253C72.7128 49.8451 71.9293 50.6215 71.1306 50.9737C70.3857 51.3022 69.1242 51.3935 68.5083 51.1633C67.2497 50.6926 66.4084 49.9313 65.8839 48.7887C65.4681 47.8828 65.4513 46.4683 65.8456 45.5862C66.2705 44.6358 66.8707 43.9991 67.7501 43.5661C68.3144 43.2883 68.9061 43.1601 69.4875 43.1669H69.4875ZM2.51662 43.4952C2.31615 43.4984 2.19727 43.5128 2.18125 43.5401C2.119 43.6464 2.55196 44.8729 3.62675 47.6337C4.27929 49.3098 4.68106 50.2629 6.02378 53.3211C7.00167 55.5484 9.14516 59.8973 9.78288 60.9478C10.0792 61.4359 10.3215 61.8672 10.3215 61.9062C10.3215 61.9125 10.3347 61.9377 10.3447 61.9584C10.4826 62.1933 10.5974 62.383 10.6883 62.5264C10.7163 62.5694 10.7422 62.6104 10.7717 62.6549L10.9882 62.9813L11.1861 63.273L12.2076 63.2862L12.9802 63.2498C14.8121 63.1633 21.2311 63.342 25.0722 63.5864C25.2148 63.5955 25.2954 63.6025 25.4212 63.611C26.8367 63.683 27.2251 63.7235 27.3645 63.8693C27.3918 63.8884 27.4119 63.9089 27.4262 63.9317C27.5241 64.0875 27.4075 64.615 26.9317 66.1704C25.7119 70.1582 24.3097 75.0583 24.002 76.3695C23.9574 76.581 23.9446 76.6932 23.9573 76.7287C24.0288 76.774 24.5279 76.9641 25.1166 77.169C28.9069 78.4882 31.1772 79.3607 31.6861 79.6942C31.7115 79.7108 31.739 79.7367 31.7672 79.7665L31.9246 79.84L32.0241 80.1557C32.0771 80.2606 32.1256 80.3724 32.1623 80.4831C32.2737 80.8184 32.4013 81.0929 32.4459 81.0929C32.4906 81.0929 32.7317 80.5075 32.9817 79.792C33.4335 78.4992 33.834 77.0958 33.7697 77.0315C33.7512 77.013 32.7045 76.5018 31.4438 75.8956C30.1831 75.2894 29.1283 74.7698 29.0997 74.7413C28.9416 74.5831 29.0979 74.031 29.4635 73.4567C29.6922 73.0975 29.916 72.722 29.961 72.6222C30.0518 72.4205 30.8553 71.2673 32.2257 69.3722C32.7241 68.6829 33.2135 68.0008 33.3133 67.856C33.4132 67.7112 33.7567 67.2293 34.0765 66.7851L34.5223 66.1659C34.5983 66.0408 34.6391 65.9603 34.6428 65.9255L34.4183 65.1553C33.933 63.4902 33.5787 61.0736 33.5615 59.3111C33.5566 58.8119 33.499 57.4506 33.4334 56.2859C33.3678 55.1211 33.2784 53.4976 33.2346 52.678L33.1607 51.293L33.1538 51.1874L32.4656 50.8399C32.0865 50.6486 31.1012 50.2113 30.276 49.8683C23.6436 47.1114 17.5358 45.3833 10.4425 44.2563C8.14478 43.8912 4.20224 43.5184 2.74348 43.4957C2.65932 43.4944 2.58341 43.4942 2.51659 43.4952L2.51662 43.4952ZM45.6285 44.4865H45.6287C45.7097 44.4846 45.7908 44.4861 45.8717 44.4893C46.5671 44.4991 46.8489 44.5642 47.3784 44.8124C47.9621 45.086 48.4948 45.5289 48.908 46.0712C49.0586 46.2599 49.1798 46.4459 49.2767 46.6412C49.3136 46.709 49.3493 46.7775 49.3824 46.8471C49.6487 47.4073 49.698 47.6755 49.6934 48.5412C49.6888 49.4224 49.6382 49.6713 49.3405 50.2779C48.9413 51.0916 48.1693 51.8329 47.2898 52.2472C46.4265 52.6538 44.8858 52.6538 44.0225 52.2472C42.9565 51.7451 42.1807 50.8655 41.8131 49.8565C41.7697 49.7504 41.7387 49.6524 41.716 49.5537C41.533 48.8914 41.5225 48.1857 41.7178 47.502C42.078 46.2417 42.797 45.38 43.9622 44.8119C44.5112 44.5442 44.778 44.4902 45.5984 44.4879C45.6084 44.4879 45.6184 44.4866 45.6284 44.4865H45.6285ZM60.7949 49.5469H60.7951C61.252 49.5625 61.5089 49.7002 61.5089 49.943C61.5089 50.2354 61.1709 50.8091 60.8776 51.0146C60.7743 51.0869 60.684 51.1336 60.5935 51.16C60.58 51.1649 60.566 51.1686 60.5524 51.1718C60.543 51.1736 60.5335 51.1754 60.524 51.177C60.5059 51.1797 60.4869 51.1818 60.4678 51.1817C60.306 51.1907 60.1271 51.1325 59.8632 51.0009C59.6569 50.898 59.3964 50.6584 59.2842 50.4684C59.1587 50.2563 59.1166 50.1689 59.161 50.0742C59.1624 50.0686 59.1629 50.0624 59.1647 50.0571C59.187 49.9989 59.2367 49.9443 59.3086 49.8945C59.31 49.8927 59.3109 49.8919 59.3127 49.8901C59.463 49.7398 59.804 49.6271 60.2735 49.5726C60.4681 49.5501 60.6426 49.5417 60.7949 49.5469L60.7949 49.5469ZM60.6703 52.752H60.6706C60.808 52.7529 60.9384 52.7707 61.0731 52.8009C61.3392 52.8607 62.4582 53.3252 63.5597 53.833C64.715 54.3658 65.4137 54.6579 65.9612 54.7669C66.2746 54.8032 66.5864 54.8044 66.8818 54.7678C67.0966 54.722 67.3183 54.6472 67.5757 54.5442C68.498 54.1752 68.4816 54.1775 68.5679 54.4024C68.6651 54.6557 68.2166 55.1652 67.6383 55.4584C67.3091 55.6252 67.15 55.7103 67.0585 55.8817C67.0125 56.0075 66.9725 56.1688 66.9382 56.3754C66.9264 56.4681 66.9145 56.5714 66.9012 56.6938C66.7897 57.7191 66.4382 59.1808 65.8054 61.2472C64.8088 64.5025 63.4627 67.2099 62.1203 68.6598C60.785 70.102 59.4981 70.5097 58.0455 69.951C57.9147 69.9006 57.784 69.8379 57.6536 69.769C57.5256 69.7097 57.4121 69.643 57.2915 69.5555C54.7517 67.8809 52.4001 62.8512 51.705 57.3749C51.6481 56.9268 51.5888 56.6257 51.5185 56.4409C51.5158 56.4336 51.5127 56.4277 51.51 56.4208C51.4982 56.3918 51.4865 56.3642 51.474 56.3414C51.4718 56.3368 51.469 56.3339 51.4667 56.3298C51.4381 56.2804 51.408 56.2452 51.3753 56.2253C51.2931 56.1754 51.1005 56.022 50.8978 55.8474H50.8976C50.83 55.7892 50.7614 55.7286 50.6953 55.6687C50.3591 55.3641 50.2461 55.1857 50.293 55.0346C50.2935 55.0305 50.2949 55.0267 50.2958 55.0226C50.2962 55.0216 50.2962 55.0207 50.2967 55.0198C50.2968 55.0194 50.2968 55.0189 50.2969 55.0189C50.3006 55.0013 50.3075 54.9854 50.317 54.9712C50.3481 54.8989 50.3817 54.8584 50.4815 54.8655C50.5304 54.8673 50.5966 54.8825 50.6829 54.9095C50.6838 54.9097 50.6838 54.9097 50.6847 54.9099C50.7011 54.9151 50.7203 54.9216 50.7383 54.9277C50.9248 54.9869 51.1967 55.0887 51.6216 55.2491C52.2296 55.4787 52.6733 55.5597 53.3249 55.5597C54.3897 55.5597 54.905 55.3669 57.6059 53.9591C57.6892 53.9157 57.7557 53.8826 57.8344 53.8419C57.9408 53.7868 58.047 53.7315 58.1504 53.6797C59.4992 52.9937 60.1419 52.7478 60.6701 52.7518L60.6703 52.752ZM40.309 55.729C41.1776 55.7287 42.0597 56.0068 42.824 56.4915C43.3505 56.8004 43.7984 57.2108 44.1549 57.7134C44.3514 57.9744 44.5214 58.2557 44.659 58.5543C44.8328 58.9317 44.9137 59.1672 44.9518 59.5628C45.0814 60.1812 45.0846 60.8048 44.9759 61.403C44.9514 61.9549 44.8655 62.1627 44.5819 62.7277C43.8053 64.2753 42.4137 65.2033 40.5739 65.4004C40.2745 65.4324 39.7844 65.4101 39.4849 65.351C38.9114 65.2376 38.3913 65.0522 37.9276 64.8005C37.7587 64.7241 37.6253 64.656 37.5726 64.6147C37.5102 64.5659 37.4467 64.5111 37.3833 64.4559C36.7598 63.9969 36.2681 63.3909 35.9217 62.6521C35.9171 62.6432 35.9109 62.6333 35.9068 62.6244C35.7733 62.3477 35.6927 62.1511 35.6418 61.9265C35.5789 61.724 35.5246 61.514 35.4802 61.2959C35.3646 60.729 35.3618 60.3987 35.4679 59.8705C35.9084 57.6771 37.3602 56.2338 39.5621 55.8006C39.8078 55.7523 40.0578 55.7291 40.309 55.729L40.309 55.729Z" fill="#FFD73E"/>
<path d="M76.9662 54.5629C76.5258 54.5578 76.011 54.6471 75.6063 54.8245C74.9026 55.1331 74.2664 55.832 73.9679 56.6241C73.641 57.4915 73.6689 58.8847 74.0071 59.8592C74.0732 60.0333 74.1466 60.1992 74.2269 60.3567C74.577 60.994 75.1776 61.6203 75.7273 61.9048C76.1541 62.1257 77.1006 62.1527 77.532 61.9561C78.0957 61.6992 78.6457 59.3751 78.5188 57.7862C78.4127 56.4582 78.0409 54.9457 77.7724 54.7494C77.6065 54.6281 77.3088 54.567 76.9662 54.5629V54.5629ZM40.3345 56.6352C40.1323 56.6353 39.931 56.6539 39.7333 56.6929C37.9606 57.0416 36.7918 58.2035 36.4372 59.9693C36.3518 60.3945 36.354 60.6604 36.4471 61.1168C36.4829 61.2923 36.5264 61.4614 36.5771 61.6245C36.618 61.8053 36.683 61.9637 36.7905 62.1865C36.7938 62.1936 36.7988 62.2015 36.8023 62.2087C37.0812 62.8035 37.4772 63.2913 37.9791 63.6608C38.0302 63.7052 38.0814 63.7494 38.1315 63.7887C38.174 63.822 38.2814 63.8768 38.4173 63.9383C38.7906 64.141 39.2092 64.2902 39.6709 64.3815C39.912 64.4291 40.3066 64.447 40.5477 64.4212C42.0288 64.2625 43.1491 63.5156 43.7743 62.2697C44.0026 61.8148 44.0718 61.6473 44.0915 61.2031C44.179 60.7215 44.1764 60.2195 44.0721 59.7216C44.0414 59.4032 43.9762 59.2136 43.8362 58.9098C43.7255 58.6694 43.5886 58.443 43.4304 58.2329C43.1435 57.8282 42.783 57.4979 42.3591 57.2492C41.7438 56.8591 41.0338 56.6351 40.3345 56.6354L40.3345 56.6352Z" fill="#EE4E36"/>
<path d="M68.7936 44.3064C68.1035 44.3054 67.4416 44.983 67.4384 45.6923C67.4384 45.6998 67.4386 45.7058 67.4386 45.7131C67.4436 45.996 67.5847 46.3424 67.7823 46.6079C67.7877 46.6147 67.7934 46.6213 67.7988 46.628C67.8329 46.6637 67.8673 46.6996 67.908 46.7403C67.9838 46.8161 68.0586 46.8817 68.1328 46.9393C68.5297 47.1634 69.2284 47.1232 69.6248 46.841C70.1191 46.489 70.3008 45.8191 70.059 45.2404C69.8581 44.7596 69.245 44.3073 68.7936 44.3064H68.7936ZM45.8138 45.5202C45.7764 45.5206 45.7402 45.5232 45.7041 45.5254C44.7065 45.6289 44.1656 46.6218 44.6164 47.5339C44.7358 47.7494 44.9076 47.9464 45.1014 48.0955C45.5815 48.4081 46.2349 48.3793 46.7348 47.962C47.0738 47.679 47.1486 47.5235 47.1992 46.9967C47.2075 46.9114 47.2133 46.8394 47.2174 46.7736C47.1983 46.5617 47.1544 46.3754 47.0844 46.2168C47.025 46.139 46.945 46.0542 46.8331 45.9424C46.6592 45.7684 46.5336 45.6639 46.3994 45.6013C46.2296 45.546 46.035 45.518 45.8138 45.5202V45.5202Z" fill="white"/>
<path d="M59.077 58.8192C57.0718 58.8383 55.2994 60.0155 53.6456 61.7849C54.6343 64.9962 56.0852 67.5812 57.6115 68.6912C57.7208 68.7787 57.8237 68.8454 57.9398 68.9046C58.058 68.9736 58.1765 69.0363 58.2951 69.0866C59.6121 69.6454 60.7789 69.2377 61.9895 67.7955C63.0291 66.557 64.0703 64.3992 64.9153 61.7679C62.7438 59.6622 60.8224 58.8027 59.077 58.8192Z" fill="#EE7277"/>
</svg>
