<svg width="70" height="70" viewBox="0 0 70 70" fill="none" xmlns="http://www.w3.org/2000/svg">
<path d="M68.4831 38.2454C66.6 54.9753 52.2339 68.524 35 68.524C17.7547 68.524 3.54026 55.271 1.67222 38.5251C5.45995 43.5898 13.7483 48.5054 24.6464 49.3267L24.6492 49.3429C24.6943 49.6046 24.7684 49.9753 24.8855 50.4185C25.1193 51.303 25.5271 52.4868 26.2243 53.6728C27.629 56.0625 30.2123 58.4545 34.8284 58.4168C39.441 58.3792 41.9646 55.9883 43.3105 53.6121C43.9779 52.4337 44.3556 51.2622 44.5668 50.3882C44.6726 49.9502 44.7372 49.5842 44.7756 49.3259L44.7759 49.3237C48.4258 49.0056 53.7749 47.5519 58.5802 45.4175C61.0765 44.3087 63.4445 43.0082 65.3624 41.5734C66.5253 40.7034 67.7081 39.2265 68.4831 38.2454Z" fill="#E3E2E3"/>
<path d="M68.0996 29.6407C65.534 13.6734 51.6915 1.47604 35 1.47604C18.3174 1.47604 4.48073 13.6604 1.9045 29.6152C4.04787 27.8818 7.23123 25.6963 10.8747 23.9101C15.0762 21.8502 19.943 20.2948 24.5558 20.627C24.7904 15.4007 29.335 11.232 34.907 11.232C40.4816 11.232 45.0279 15.4047 45.2585 20.6343C49.8287 20.4765 59.9972 22.0841 68.0996 29.6407Z" fill="#F15B6C"/>
<path d="M1.70427 31.0526C1.55239 32.3473 1.4743 33.6645 1.4743 35L1.47457 35.1359H68.5254L68.5257 35C68.5257 33.7175 68.4537 32.4518 68.3135 31.2067C60.289 23.1073 49.7647 21.442 45.2511 21.6112C44.945 26.774 40.4308 30.871 34.907 30.871C29.3813 30.871 24.866 26.7713 24.5626 21.6062C20.1755 21.2689 15.4608 22.7483 11.3029 24.7867C7.23061 26.7833 3.74443 29.2905 1.70427 31.0526Z" fill="#7C8A9E"/>
<path d="M43.8557 48.8288L43.8888 48.4085C43.8888 48.4085 40.5848 49.0148 34.6901 49.0812C28.7953 49.1475 25.5139 48.408 25.5139 48.408L25.5561 48.8175L25.5564 48.8204L25.5583 48.8362C25.56 48.8509 25.5629 48.8739 25.567 48.9046C25.5753 48.9661 25.5889 49.0583 25.6093 49.177C25.6502 49.4144 25.7185 49.7568 25.8274 50.1687C26.0456 50.9943 26.4241 52.0893 27.0638 53.1776C28.3329 55.3365 30.6261 57.475 34.8204 57.4408C39.0183 57.4066 41.2531 55.2668 42.4631 53.1304C43.0736 52.0525 43.4232 50.9722 43.6198 50.1585C43.7179 49.7527 43.7772 49.4158 43.8119 49.1822C43.8293 49.0655 43.8404 48.9749 43.8471 48.9146C43.8505 48.8844 43.8527 48.8619 43.8541 48.8475L43.8555 48.8321L43.8557 48.8288Z" fill="#75849D"/>
<path d="M64.7794 40.7914C66.53 39.4818 67.8298 38.0993 68.4831 36.7056C68.5091 36.1854 68.5233 35.6621 68.5254 35.1359H1.47457C1.47669 35.6693 1.49126 36.1998 1.51802 36.727C4.48482 42.0329 13.1018 47.5832 25.1038 48.3807L25.5139 48.408C25.5139 48.408 28.7953 49.1475 34.6901 49.0812C40.5848 49.0148 43.8888 48.4085 43.8888 48.4085L44.3093 48.3807C47.8153 48.1491 53.272 46.7076 58.1853 44.5252C60.6382 43.4357 62.9372 42.1695 64.7794 40.7914Z" fill="#A2B4CC"/>
<path d="M39.1614 20.872C39.1614 23.0503 37.2983 24.8161 35 24.8161C32.7017 24.8161 30.8385 23.0503 30.8385 20.872C30.8385 20.7974 30.8407 20.7233 30.845 20.6497C30.9667 18.5749 32.7804 16.9279 35 16.9279C37.2195 16.9279 39.0332 18.5749 39.1549 20.6497C39.1592 20.7233 39.1614 20.7974 39.1614 20.872Z" fill="#444445"/>
<path fill-rule="evenodd" clip-rule="evenodd" d="M35 69.5C53.4012 69.5 68.4477 54.9511 69.4539 36.7984C69.4845 36.2027 69.5 35.6033 69.5 35C69.5 15.9445 54.0521 0.5 35 0.5C15.9479 0.5 0.5 15.9445 0.5 35C0.5 35.6211 0.516411 36.2383 0.548823 36.8513C1.58537 54.9753 16.6195 69.5 35 69.5ZM35 68.524C52.2339 68.524 66.6 54.9753 68.4831 38.2454C67.7081 39.2265 66.5253 40.7034 65.3624 41.5734C63.4445 43.0082 61.0765 44.3087 58.5802 45.4175C53.7749 47.5519 48.4258 49.0056 44.7759 49.3237L44.7756 49.3259C44.7372 49.5842 44.6726 49.9502 44.5668 50.3882C44.3556 51.2622 43.9779 52.4337 43.3105 53.6121C41.9646 55.9883 39.441 58.3792 34.8284 58.4168C30.2123 58.4545 27.629 56.0625 26.2243 53.6728C25.5271 52.4868 25.1193 51.303 24.8855 50.4185C24.7684 49.9753 24.6943 49.6046 24.6492 49.3429L24.6464 49.3267C13.7483 48.5054 5.45995 43.5898 1.67222 38.5251C3.54026 55.271 17.7547 68.524 35 68.524ZM68.4831 36.7056C67.8298 38.0993 66.53 39.4818 64.7794 40.7914C62.9372 42.1695 60.6382 43.4357 58.1853 44.5252C53.272 46.7076 47.8153 48.1491 44.3093 48.3807L43.8888 48.4085L43.8557 48.8288L43.8555 48.8321L43.8541 48.8475C43.8527 48.8619 43.8505 48.8844 43.8471 48.9146C43.8404 48.9749 43.8293 49.0655 43.8119 49.1822C43.7772 49.4158 43.7179 49.7527 43.6198 50.1585C43.4232 50.9722 43.0736 52.0525 42.4631 53.1304C41.2531 55.2668 39.0183 57.4066 34.8204 57.4408C30.6261 57.475 28.3329 55.3365 27.0638 53.1776C26.4241 52.0893 26.0456 50.9943 25.8274 50.1687C25.7185 49.7568 25.6502 49.4144 25.6093 49.177C25.5889 49.0583 25.5753 48.9661 25.567 48.9046C25.5629 48.8739 25.56 48.8509 25.5583 48.8362L25.5564 48.8204L25.5561 48.8175L25.5139 48.408L25.1038 48.3807C13.1018 47.5832 4.48482 42.0329 1.51802 36.727C1.49126 36.1998 1.47669 35.6693 1.47457 35.1359L1.4743 35C1.4743 33.6645 1.55239 32.3473 1.70427 31.0526C3.74443 29.2905 7.23061 26.7833 11.3029 24.7867C15.4608 22.7483 20.1755 21.2689 24.5626 21.6062C24.5518 21.4226 24.5463 21.2377 24.5463 21.0515C24.5463 20.9093 24.5495 20.7677 24.5558 20.627C19.943 20.2948 15.0762 21.8502 10.8747 23.9101C7.23123 25.6963 4.04787 27.8818 1.9045 29.6152C4.48073 13.6604 18.3174 1.47604 35 1.47604C51.6915 1.47604 65.534 13.6734 68.0996 29.6407C59.9972 22.0841 49.8287 20.4765 45.2585 20.6343C45.2646 20.7727 45.2677 20.9118 45.2677 21.0515C45.2677 21.2394 45.2621 21.426 45.2511 21.6112C49.7647 21.442 60.289 23.1073 68.3135 31.2067C68.4537 32.4518 68.5257 33.7175 68.5257 35L68.5254 35.1359C68.5233 35.6621 68.5091 36.1854 68.4831 36.7056Z" fill="black"/>
<path fill-rule="evenodd" clip-rule="evenodd" d="M45.2585 20.6343C45.0279 15.4047 40.4816 11.232 34.907 11.232C29.335 11.232 24.7904 15.4007 24.5558 20.627C24.5495 20.7677 24.5463 20.9093 24.5463 21.0515C24.5463 21.2377 24.5518 21.4226 24.5626 21.6062C24.866 26.7713 29.3813 30.871 34.907 30.871C40.4308 30.871 44.945 26.774 45.2511 21.6112C45.2621 21.426 45.2677 21.2394 45.2677 21.0515C45.2677 20.9118 45.2646 20.7727 45.2585 20.6343ZM35 24.8161C37.2983 24.8161 39.1614 23.0503 39.1614 20.872C39.1614 20.7974 39.1592 20.7233 39.1549 20.6497C39.0332 18.5749 37.2195 16.9279 35 16.9279C32.7804 16.9279 30.9667 18.5749 30.845 20.6497C30.8407 20.7233 30.8385 20.7974 30.8385 20.872C30.8385 23.0503 32.7017 24.8161 35 24.8161Z" fill="white"/>
<path d="M69.4539 36.7984L69.9532 36.826L69.9533 36.824L69.4539 36.7984ZM0.548823 36.8513L0.0495159 36.8778L0.0496388 36.8799L0.548823 36.8513ZM68.4831 38.2454L68.9799 38.3013L69.1757 36.5617L68.0907 37.9355L68.4831 38.2454ZM1.67222 38.5251L2.07263 38.2257L0.971464 36.7533L1.1753 38.5806L1.67222 38.5251ZM24.6464 49.3267L25.1392 49.2423L25.0733 48.8575L24.684 48.8282L24.6464 49.3267ZM24.6492 49.3429L24.1564 49.4274L24.1564 49.4277L24.6492 49.3429ZM24.8855 50.4185L25.3689 50.2907V50.2907L24.8855 50.4185ZM26.2243 53.6728L26.6553 53.4195L26.2243 53.6728ZM34.8284 58.4168L34.8243 57.9168L34.8284 58.4168ZM43.3105 53.6121L42.8754 53.3657L43.3105 53.6121ZM44.5668 50.3882L44.0807 50.2707L44.5668 50.3882ZM44.7756 49.3259L44.2811 49.2523L44.281 49.2524L44.7756 49.3259ZM44.7759 49.3237L44.7325 48.8256L44.3395 48.8598L44.2814 49.2501L44.7759 49.3237ZM58.5802 45.4175L58.3772 44.9605L58.5802 45.4175ZM65.3624 41.5734L65.6619 41.9738L65.3624 41.5734ZM64.7794 40.7914L65.0789 41.1918V41.1918L64.7794 40.7914ZM68.4831 36.7056L68.9358 36.9178L68.9775 36.8288L68.9824 36.7306L68.4831 36.7056ZM58.1853 44.5252L58.3882 44.9822V44.9822L58.1853 44.5252ZM44.3093 48.3807L44.3422 48.8796L44.3093 48.3807ZM43.8888 48.4085L43.8558 47.9096L43.827 47.9115L43.7985 47.9167L43.8888 48.4085ZM43.8557 48.8288L44.354 48.8706L44.3542 48.868L43.8557 48.8288ZM43.8555 48.8321L44.3534 48.8775L44.3537 48.8739L43.8555 48.8321ZM43.8541 48.8475L44.3518 48.8944L44.352 48.8929L43.8541 48.8475ZM43.8471 48.9146L44.344 48.9699L44.344 48.9698L43.8471 48.9146ZM43.8119 49.1822L43.3173 49.1088V49.1088L43.8119 49.1822ZM43.6198 50.1585L44.1058 50.276L44.1058 50.276L43.6198 50.1585ZM42.4631 53.1305L42.8982 53.3769L42.4631 53.1305ZM34.8204 57.4408L34.8164 56.9408L34.8204 57.4408ZM27.0638 53.1776L27.4949 52.9242L27.0638 53.1776ZM25.8274 50.1687L26.3108 50.0409L25.8274 50.1687ZM25.6093 49.177L26.1021 49.0921L26.1021 49.0921L25.6093 49.177ZM25.567 48.9046L26.0625 48.8375L26.0625 48.8375L25.567 48.9046ZM25.5583 48.8362L25.0616 48.8935L25.0617 48.8951L25.5583 48.8362ZM25.5564 48.8204L25.0594 48.8751L25.0597 48.8777L25.5564 48.8204ZM25.5561 48.8175L25.0587 48.8688L25.0591 48.8722L25.5561 48.8175ZM25.5139 48.408L25.6238 47.9202L25.5858 47.9116L25.547 47.9091L25.5139 48.408ZM25.1038 48.3807L25.0706 48.8796H25.0706L25.1038 48.3807ZM1.51802 36.727L1.01866 36.7524L1.02458 36.8691L1.08161 36.9711L1.51802 36.727ZM1.70427 31.0526L1.37744 30.6742L1.23032 30.8012L1.20767 30.9943L1.70427 31.0526ZM11.3029 24.7867L11.0828 24.3378L11.3029 24.7867ZM68.3135 31.2067L68.8103 31.1508L68.7909 30.9782L68.6687 30.8548L68.3135 31.2067ZM68.0996 29.6407L67.7586 30.0064L68.8245 31.0005L68.5933 29.5614L68.0996 29.6407ZM1.9045 29.6152L1.4109 29.5355L1.20253 30.8259L2.21891 30.004L1.9045 29.6152ZM10.8747 23.9101L10.6546 23.4611L10.8747 23.9101ZM45.2585 20.6343L44.759 20.6564V20.6564L45.2585 20.6343ZM24.5558 20.627L25.0553 20.6494L24.5558 20.627ZM30.845 20.6497L31.3442 20.6789L30.845 20.6497ZM39.1549 20.6497L39.654 20.6204L39.1549 20.6497ZM35 70C53.6706 70 68.9325 55.2397 69.9532 36.826L68.9547 36.7707C67.963 54.6625 53.1317 69 35 69V70ZM0.0496388 36.8799C1.10107 55.2642 16.3502 70 35 70V69C16.8888 69 2.06966 54.6864 1.04801 36.8228L0.0496388 36.8799ZM0 35C0 35.6299 0.0166439 36.256 0.0495205 36.8778L1.04813 36.825C1.01618 36.2207 1 35.6123 1 35H0ZM35 0C15.6718 0 0 15.6683 0 35H1C1 16.2207 16.224 1 35 1V0ZM70 35C70 15.6683 54.3283 0 35 0V1C53.776 1 69 16.2207 69 35H70ZM69.9518 36.8535C69.9838 36.2396 70 35.6217 70 35H69C69 35.6043 68.9842 36.2049 68.9531 36.8013L69.9518 36.8535ZM67.9862 38.1894C66.1304 54.6774 51.9686 68.024 35 68.024V69.024C52.4992 69.024 67.0696 55.2732 68.9799 38.3013L67.9862 38.1894ZM35 68.024C18.0168 68.024 4.00977 54.9699 2.16914 38.4697L1.1753 38.5806C3.07075 55.5721 17.4926 69.024 35 69.024V68.024ZM24.684 48.8282C13.9025 48.0156 5.75865 43.1544 2.07263 38.2257L1.27181 38.8246C5.16124 44.0253 13.5941 48.9952 24.6088 49.8253L24.684 48.8282ZM25.142 49.2584L25.1392 49.2423L24.1536 49.4112L24.1564 49.4274L25.142 49.2584ZM25.3689 50.2907C25.256 49.8635 25.1849 49.5074 25.1419 49.2581L24.1564 49.4277C24.2036 49.7019 24.2808 50.087 24.4021 50.5463L25.3689 50.2907ZM26.6553 53.4195C25.9876 52.2835 25.5948 51.1451 25.3689 50.2907L24.4021 50.5463C24.6439 51.4609 25.0666 52.6902 25.7933 53.9262L26.6553 53.4195ZM34.8243 57.9168C30.4253 57.9527 27.9908 55.6912 26.6553 53.4195L25.7933 53.9262C27.2673 56.4337 29.9994 58.9562 34.8325 58.9168L34.8243 57.9168ZM42.8754 53.3657C41.599 55.6194 39.2234 57.881 34.8243 57.9168L34.8325 58.9168C39.6586 58.8774 42.3303 56.3573 43.7456 53.8585L42.8754 53.3657ZM44.0807 50.2707C43.877 51.1139 43.5137 52.2387 42.8754 53.3657L43.7456 53.8585C44.4421 52.6287 44.8341 51.4106 45.0528 50.5056L44.0807 50.2707ZM44.281 49.2524C44.2446 49.4981 44.1826 49.8492 44.0807 50.2707L45.0528 50.5056C45.1626 50.0512 45.2299 49.6704 45.2702 49.3993L44.281 49.2524ZM44.2814 49.2501L44.2811 49.2523L45.2702 49.3995L45.2705 49.3973L44.2814 49.2501ZM58.3772 44.9605C53.6091 47.0784 48.3144 48.5134 44.7325 48.8256L44.8194 49.8218C48.5372 49.4978 53.9407 48.0253 58.7832 45.8744L58.3772 44.9605ZM65.0628 41.1731C63.1838 42.5788 60.8512 43.8616 58.3772 44.9605L58.7831 45.8744C61.3018 44.7557 63.7052 43.4376 65.6619 41.9738L65.0628 41.1731ZM68.0907 37.9355C67.3069 38.9278 66.164 40.3493 65.0628 41.1731L65.6619 41.9738C66.8867 41.0575 68.1094 39.5252 68.8754 38.5553L68.0907 37.9355ZM65.0789 41.1918C66.8599 39.8594 68.2328 38.4176 68.9358 36.9178L68.0303 36.4934C67.4268 37.7811 66.2001 39.1041 64.4799 40.391L65.0789 41.1918ZM58.3882 44.9822C60.8634 43.8828 63.1979 42.599 65.0789 41.1918L64.4799 40.391C62.6765 41.7401 60.4129 42.9887 57.9823 44.0683L58.3882 44.9822ZM44.3422 48.8796C47.923 48.6431 53.4381 47.1809 58.3882 44.9822L57.9823 44.0683C53.1059 46.2343 47.7077 47.6551 44.2763 47.8818L44.3422 48.8796ZM43.9217 48.9074L44.3422 48.8796L44.2763 47.8818L43.8558 47.9096L43.9217 48.9074ZM44.3542 48.868L44.3872 48.4476L43.3903 48.3693L43.3573 48.7897L44.3542 48.868ZM44.3537 48.8739L44.354 48.8706L43.3575 48.787L43.3572 48.7903L44.3537 48.8739ZM44.352 48.8929L44.3534 48.8775L43.3575 48.7868L43.3561 48.8022L44.352 48.8929ZM44.344 48.9698C44.3477 48.9369 44.3502 48.9115 44.3518 48.8944L43.3563 48.8006C43.3552 48.8123 43.3532 48.832 43.3502 48.8593L44.344 48.9698ZM44.3065 49.2557C44.3248 49.1326 44.3367 49.0359 44.344 48.9699L43.3502 48.8593C43.3441 48.9139 43.3337 48.9985 43.3173 49.1088L44.3065 49.2557ZM44.1058 50.276C44.2079 49.8537 44.2699 49.5019 44.3065 49.2557L43.3173 49.1088C43.2846 49.3296 43.2279 49.6517 43.1338 50.0411L44.1058 50.276ZM42.8982 53.3769C43.5378 52.2475 43.9018 51.1205 44.1058 50.276L43.1338 50.0411C42.9447 50.8239 42.6094 51.8576 42.028 52.884L42.8982 53.3769ZM34.8245 57.9408C39.2355 57.9048 41.6185 55.6362 42.8982 53.3769L42.028 52.884C40.8876 54.8975 38.8011 56.9083 34.8164 56.9408L34.8245 57.9408ZM26.6328 53.4309C27.9714 55.7081 30.4135 57.9768 34.8245 57.9408L34.8164 56.9408C30.8386 56.9733 28.6944 54.9648 27.4949 52.9242L26.6328 53.4309ZM25.344 50.2964C25.5702 51.1522 25.9637 52.2926 26.6328 53.4309L27.4949 52.9242C26.8846 51.886 26.5211 50.8365 26.3108 50.0409L25.344 50.2964ZM25.1166 49.2618C25.1596 49.5117 25.2309 49.8685 25.344 50.2964L26.3108 50.0409C26.2062 49.645 26.1408 49.3172 26.1021 49.0921L25.1166 49.2618ZM25.0715 48.9717C25.0806 49.0387 25.0951 49.1369 25.1166 49.2618L26.1021 49.0921C26.0827 48.9798 26.0701 48.8934 26.0625 48.8375L25.0715 48.9717ZM25.0617 48.8951C25.0638 48.9125 25.067 48.9382 25.0715 48.9717L26.0625 48.8375C26.0587 48.8096 26.0562 48.7893 26.0548 48.7773L25.0617 48.8951ZM25.0597 48.8777L25.0616 48.8935L26.055 48.7789L26.0531 48.7631L25.0597 48.8777ZM25.0591 48.8722L25.0594 48.8751L26.0534 48.7657L26.0531 48.7627L25.0591 48.8722ZM25.0165 48.4593L25.0588 48.8688L26.0535 48.7662L26.0112 48.3566L25.0165 48.4593ZM25.0706 48.8796L25.4807 48.9069L25.547 47.9091L25.1369 47.8818L25.0706 48.8796ZM1.08161 36.9711C4.1562 42.4697 12.9587 48.0748 25.0706 48.8796L25.1369 47.8818C13.245 47.0916 4.81344 41.5961 1.95443 36.483L1.08161 36.9711ZM1.9743 35C1.9743 33.684 2.05125 32.3862 2.20086 31.1108L1.20767 30.9943C1.05354 32.3083 0.974299 33.645 0.974299 35H1.9743ZM2.03109 31.431C4.04225 29.6939 7.49299 27.2115 11.523 25.2357L11.0828 24.3378C6.96822 26.3551 3.44661 28.887 1.37744 30.6742L2.03109 31.431ZM67.8166 31.2627C67.9547 32.4892 68.0257 33.7362 68.0257 35H69.0257C69.0257 33.6987 68.9526 32.4144 68.8103 31.1508L67.8166 31.2627ZM35 1.97604C51.4421 1.97604 65.0787 13.9913 67.6059 29.7201L68.5933 29.5614C65.9894 13.3555 51.9409 0.976036 35 0.976036V1.97604ZM2.39811 29.6949C4.93585 13.9785 18.5666 1.97604 35 1.97604V0.976036C18.0681 0.976036 4.02562 13.3423 1.4109 29.5355L2.39811 29.6949ZM10.6546 23.4611C6.97294 25.2661 3.75827 27.473 1.5901 29.2264L2.21891 30.004C4.33746 28.2907 7.48952 26.1265 11.0948 24.359L10.6546 23.4611ZM38.6614 20.872C38.6614 22.7492 37.0477 24.3161 35 24.3161V25.3161C37.5488 25.3161 39.6614 23.3513 39.6614 20.872H38.6614ZM35 24.3161C32.9522 24.3161 31.3385 22.7492 31.3385 20.872H30.3385C30.3385 23.3513 32.4511 25.3161 35 25.3161V24.3161ZM45.758 20.6123C45.5146 15.0931 40.7264 10.732 34.907 10.732V11.732C40.2368 11.732 44.5411 15.7162 44.759 20.6564L45.758 20.6123ZM34.907 10.732C29.0903 10.732 24.3039 15.089 24.0563 20.6046L25.0553 20.6494C25.2769 15.7125 29.5797 11.732 34.907 11.732V10.732ZM31.3442 20.6789C31.4491 18.8897 33.0233 17.4279 35 17.4279V16.4279C32.5375 16.4279 30.4843 18.26 30.3459 20.6204L31.3442 20.6789ZM35 17.4279C36.9767 17.4279 38.5508 18.8897 38.6558 20.6789L39.654 20.6204C39.5156 18.26 37.4624 16.4279 35 16.4279V17.4279ZM38.6558 20.6789C38.6595 20.7428 38.6614 20.8071 38.6614 20.872H39.6614C39.6614 20.7876 39.6589 20.7037 39.654 20.6204L38.6558 20.6789ZM31.3385 20.872C31.3385 20.8072 31.3404 20.7428 31.3442 20.6789L30.3459 20.6204C30.341 20.7037 30.3385 20.7876 30.3385 20.872H31.3385ZM25.0463 21.0515C25.0463 20.9168 25.0493 20.7827 25.0553 20.6494L24.0563 20.6046C24.0497 20.7528 24.0463 20.9018 24.0463 21.0515H25.0463ZM24.5917 20.1283C19.8523 19.787 14.8918 21.3837 10.6546 23.4611L11.0948 24.359C15.2606 22.3166 20.0338 20.8026 24.5199 21.1257L24.5917 20.1283ZM44.759 20.6564C44.7647 20.7874 44.7677 20.9191 44.7677 21.0515H45.7677C45.7677 20.9044 45.7644 20.758 45.758 20.6123L44.759 20.6564ZM68.4406 29.2751C60.2179 21.6062 49.9082 19.9734 45.2412 20.1346L45.2757 21.134C49.7492 20.9795 59.7764 22.5619 67.7586 30.0064L68.4406 29.2751ZM0.974299 35C0.974299 35.046 0.97439 35.092 0.974573 35.1379L1.97456 35.134C1.97439 35.0893 1.9743 35.0447 1.9743 35H0.974299ZM1.47457 35.6359H68.5254V34.6359H1.47457V35.6359ZM69.0254 35.1379C69.0256 35.092 69.0257 35.046 69.0257 35H68.0257C68.0257 35.0447 68.0256 35.0893 68.0254 35.134L69.0254 35.1379ZM68.6687 30.8548C60.5203 22.6303 49.8451 20.9387 45.2324 21.1116L45.2698 22.1109C49.6843 21.9454 60.0577 23.5842 67.9583 31.5586L68.6687 30.8548ZM44.752 21.5816C44.4628 26.4589 40.188 30.371 34.907 30.371V31.371C40.6736 31.371 45.4272 27.089 45.7502 21.6408L44.752 21.5816ZM34.907 30.371C29.6242 30.371 25.3484 26.4564 25.0617 21.5769L24.0634 21.6355C24.3837 27.0862 29.1385 31.371 34.907 31.371V30.371ZM24.6009 21.1077C20.0858 20.7605 15.2764 22.2818 11.0828 24.3378L11.523 25.2357C15.6451 23.2147 20.2651 21.7773 24.5242 22.1047L24.6009 21.1077ZM25.0617 21.5769C25.0515 21.403 25.0463 21.2279 25.0463 21.0515H24.0463C24.0463 21.2475 24.0521 21.4422 24.0634 21.6355L25.0617 21.5769ZM24.5242 22.1047C24.592 22.1099 24.6596 22.1156 24.7272 22.1217L24.8172 21.1258C24.7452 21.1192 24.6731 21.1132 24.6009 21.1077L24.5242 22.1047ZM44.9932 22.124C45.0824 22.1189 45.1746 22.1144 45.2698 22.1109L45.2324 21.1116C45.1305 21.1154 45.0314 21.1201 44.9351 21.1257L44.9932 22.124ZM2.01738 36.7017C1.99101 36.1822 1.97665 35.6596 1.97456 35.134L0.974573 35.1379C0.976721 35.6791 0.99151 36.2174 1.01866 36.7524L2.01738 36.7017ZM44.7677 21.0515C44.7677 21.2295 44.7624 21.4062 44.752 21.5816L45.7502 21.6408C45.7618 21.4457 45.7677 21.2493 45.7677 21.0515H44.7677ZM68.0254 35.134C68.0234 35.6524 68.0094 36.1681 67.9837 36.6806L68.9824 36.7306C69.0089 36.2028 69.0233 35.6718 69.0254 35.1379L68.0254 35.134ZM0.959989 35.6359H1.47457V34.6359H0.959989V35.6359ZM68.5254 35.6359H69.0876V34.6359H68.5254V35.6359ZM0.9743 35.001L0.97457 35.1369L1.97457 35.135L1.9743 34.999L0.9743 35.001ZM69.0254 35.1369L69.0257 35.001L68.0257 34.999L68.0254 35.135L69.0254 35.1369ZM25.5139 48.408C25.4039 48.8957 25.404 48.8957 25.4042 48.8958C25.4042 48.8958 25.4043 48.8958 25.4045 48.8958C25.4047 48.8959 25.405 48.896 25.4053 48.896C25.406 48.8962 25.4068 48.8964 25.4079 48.8966C25.41 48.8971 25.4129 48.8977 25.4166 48.8985C25.424 48.9002 25.4347 48.9025 25.4484 48.9054C25.476 48.9112 25.5163 48.9196 25.569 48.93C25.6746 48.951 25.8301 48.9804 26.0345 49.0153C26.4431 49.0852 27.0468 49.1769 27.8351 49.2663C29.4116 49.4451 31.7263 49.6146 34.6957 49.5812L34.6844 48.5812C31.759 48.6142 29.4857 48.4471 27.9478 48.2726C27.1788 48.1854 26.5937 48.0964 26.2029 48.0296C26.0075 47.9962 25.8607 47.9684 25.7637 47.9492C25.7152 47.9396 25.6792 47.9321 25.6559 47.9271C25.6442 47.9246 25.6356 47.9228 25.6303 47.9216C25.6276 47.921 25.6257 47.9206 25.6246 47.9204C25.6241 47.9203 25.6238 47.9202 25.6236 47.9202C25.6236 47.9201 25.6235 47.9201 25.6236 47.9201C25.6236 47.9201 25.6236 47.9202 25.6236 47.9202C25.6237 47.9202 25.6238 47.9202 25.5139 48.408ZM34.6957 49.5812C37.6591 49.5478 39.9739 49.3787 41.5508 49.2174C42.3393 49.1367 42.9433 49.058 43.3517 48.9991C43.5559 48.9697 43.7112 48.9453 43.8162 48.9281C43.8687 48.9194 43.9087 48.9126 43.9359 48.9079C43.9495 48.9055 43.9599 48.9037 43.9671 48.9024C43.9707 48.9018 43.9735 48.9013 43.9755 48.9009C43.9765 48.9007 43.9773 48.9006 43.9778 48.9005C43.9781 48.9004 43.9784 48.9004 43.9786 48.9003C43.9787 48.9003 43.9788 48.9003 43.9788 48.9003C43.9789 48.9003 43.979 48.9003 43.8888 48.4085C43.7985 47.9167 43.7986 47.9167 43.7986 47.9167C43.7986 47.9167 43.7986 47.9167 43.7986 47.9167C43.7986 47.9167 43.7986 47.9167 43.7985 47.9167C43.7983 47.9167 43.7979 47.9168 43.7972 47.9169C43.796 47.9171 43.794 47.9175 43.7911 47.918C43.7855 47.919 43.7766 47.9206 43.7646 47.9227C43.7405 47.9269 43.7037 47.9332 43.6543 47.9412C43.5556 47.9574 43.4068 47.9809 43.2091 48.0094C42.8138 48.0663 42.2234 48.1433 41.4491 48.2225C39.9003 48.381 37.6157 48.5482 34.6844 48.5812L34.6957 49.5812ZM69.9533 36.824C69.9843 36.2198 70 35.6119 70 35H69C69 35.5948 68.9847 36.1856 68.9546 36.7727L69.9533 36.824Z" fill="black"/>
<circle cx="59.5948" cy="16.1047" r="1.23844" fill="#EDDFDF"/>
<path d="M44.8414 7.24243C44.8414 7.24243 52.2906 7.79265 56.6906 13.2438" stroke="#EDDFDF" stroke-width="3" stroke-linecap="round"/>
</svg>
